<?xml version="1.0" encoding="utf-8"?>
<!-- Generator: Adobe Illustrator 19.2.1, SVG Export Plug-In . SVG Version: 6.00 Build 0)  -->
<svg version="1.1" width="16px" height="16px" xmlns="http://www.w3.org/2000/svg" xmlns:xlink="http://www.w3.org/1999/xlink" x="0px" y="0px"
	viewBox="0 0 16 16" style="enable-background:new 0 0 16 16;" xml:space="preserve">
	<g id="pacman" fill="#3fa9ec">
		<path d="M14.8,3.4c-0.3-0.4-0.6-0.8-1-1.2c-2.9-2.9-7.7-2.9-10.6,0c-2.9,2.9-2.9,7.7,0,10.6c2.9,2.9,7.7,2.9,10.6,0
			c0.2-0.2,0.4-0.4,0.6-0.6c0-0.1-6.1-4.6-6.1-4.6S14.8,3.4,14.8,3.4z M10.5,1.9c0.6,0,1.1,0.5,1.1,1.1s-0.5,1.1-1.1,1.1
			S9.4,3.6,9.4,3S9.9,1.9,10.5,1.9z"/>
		</g>
	</svg>
