<?xml version="1.0" encoding="UTF-8"?>
<svg width="474px" height="486px" viewBox="0 0 474 486" version="1.1" xmlns="http://www.w3.org/2000/svg" xmlns:xlink="http://www.w3.org/1999/xlink">
    <!-- Generator: Sketch 48.2 (47327) - http://www.bohemiancoding.com/sketch -->
    <title>Artboard</title>
    <desc>Created with Sketch.</desc>
    <defs></defs>
    <g id="Page-1" stroke="none" stroke-width="1" fill="none" fill-rule="evenodd">
        <g id="Artboard" stroke="#FFFFFF" stroke-width="30">
            <g id="Group" transform="translate(-4.000000, 0.000000)">
                <path d="M163.578058,15.2539062 C149.971067,15.2539062 139.643127,19.6053183 132.621102,27.2507019 C126.234704,34.2040333 122.719127,43.8691616 122.771723,54.0971874 C122.824384,64.3379428 126.450438,74.0619498 132.919849,81.070134 C140.001561,88.7416115 150.283832,93.0947352 163.67739,93.0947352 L178.978405,93.0947352 L178.674429,108.392731 C178.611462,111.561637 178.578058,140.404862 178.578058,193.863281 L178.578058,198.879647 L24.3079047,403.734084 C18.8241422,411.015941 15.8583669,419.88424 15.8583669,429 C15.8583669,452.195959 34.6624074,471 57.8583669,471 L424.087531,471 C433.224378,471 442.112018,468.020505 449.402647,462.513354 C467.911561,448.532202 471.582037,422.193799 457.600885,403.684884 L302.578058,198.458291 L302.578058,193.429688 C302.578058,137.290529 302.578058,137.290529 302.578058,108.094735 L302.578058,93.0947352 L317.578058,93.0947352 C330.884606,93.0947352 340.946706,88.7881174 347.795496,81.1967326 C354.06286,74.2498158 357.512715,64.5558871 357.442714,54.2764654 C357.372616,43.9827882 353.777493,34.2049711 347.407536,27.1796889 C340.496604,19.5577779 330.533032,15.2539062 317.578058,15.2539062 C239.34375,15.2539062 239.34375,15.2539062 163.578058,15.2539062 Z" id="Rectangle"></path>
            </g>
        </g>
    </g>
</svg>