<?xml version="1.0" encoding="UTF-8"?>
<svg width="110px" height="110px" viewBox="0 0 110 110" version="1.1" xmlns="http://www.w3.org/2000/svg" xmlns:xlink="http://www.w3.org/1999/xlink">
    <!-- Generator: Sketch 48.2 (47327) - http://www.bohemiancoding.com/sketch -->
    <title>Artboard</title>
    <desc>Created with Sketch.</desc>
    <defs></defs>
    <g id="Page-1" stroke="none" stroke-width="1" fill="none" fill-rule="evenodd">
        <g id="Artboard" stroke="#FFFFFF">
            <g id="logo">
                <circle id="Oval-Copy-2" stroke-width="8" cx="55.5" cy="54.5" r="12.5"></circle>
                <path d="M55.5,69.9904023 L55.5,83.0192024" id="Line-Copy" stroke-width="6" stroke-linecap="square"></path>
                <circle id="Oval-Copy" stroke-width="6" cx="55" cy="96" r="11"></circle>
                <g id="Group-2" transform="translate(55.000000, 20.500000) scale(1, -1) translate(-55.000000, -20.500000) translate(41.000000, 0.000000)" stroke-width="6">
                    <path d="M14.5,0.989604471 L14.5,13.0192024" id="Line-Copy-3" stroke-linecap="square"></path>
                    <circle id="Oval-Copy-4" cx="14" cy="27" r="11"></circle>
                </g>
                <path d="M74.9150635,59.325214 L74.9150635,75.5490381" id="Line-Copy" stroke-width="6" stroke-linecap="square" transform="translate(74.915064, 67.549038) rotate(-60.000000) translate(-74.915064, -67.549038) "></path>
                <circle id="Oval-Copy" stroke-width="6" transform="translate(91.000000, 78.000000) rotate(-60.000000) translate(-91.000000, -78.000000) " cx="91" cy="78" r="11"></circle>
                <g id="Group" transform="translate(22.500000, 77.500000) scale(-1, 1) translate(-22.500000, -77.500000) translate(0.000000, 58.000000)" stroke-width="6">
                    <path d="M8.91506351,0.421911759 L8.91506351,16.7123412" id="Line-Copy-2" stroke-linecap="square" transform="translate(8.915064, 8.712341) rotate(-60.000000) translate(-8.915064, -8.712341) "></path>
                    <circle id="Oval-Copy-3" transform="translate(25.124356, 19.287659) rotate(-60.000000) translate(-25.124356, -19.287659) " cx="25.1243557" cy="19.2876588" r="11"></circle>
                </g>
                <g id="Group-Copy" transform="translate(22.500000, 31.500000) scale(-1, -1) translate(-22.500000, -31.500000) translate(0.000000, 12.000000)" stroke-width="6">
                    <path d="M8.91506351,0.355662967 L8.91506351,16.7123412" id="Line-Copy-2" stroke-linecap="square" transform="translate(8.915064, 8.712341) rotate(-60.000000) translate(-8.915064, -8.712341) "></path>
                    <circle id="Oval-Copy-3" transform="translate(25.124356, 19.287659) rotate(-60.000000) translate(-25.124356, -19.287659) " cx="25.1243557" cy="19.2876588" r="11"></circle>
                </g>
                <g id="Group-Copy-2" transform="translate(88.500000, 31.500000) scale(1, -1) translate(-88.500000, -31.500000) translate(66.000000, 12.000000)" stroke-width="6">
                    <path d="M8.91506351,1.19285701 L8.91506351,16.7123412" id="Line-Copy-2" stroke-linecap="square" transform="translate(8.915064, 8.712341) rotate(-60.000000) translate(-8.915064, -8.712341) "></path>
                    <circle id="Oval-Copy-3" transform="translate(25.124356, 19.287659) rotate(-60.000000) translate(-25.124356, -19.287659) " cx="25.1243557" cy="19.2876588" r="11"></circle>
                </g>
            </g>
        </g>
    </g>
</svg>