<svg xmlns="http://www.w3.org/2000/svg" xmlns:xlink="http://www.w3.org/1999/xlink" width="74" height="27" viewBox="0 0 74 27"><defs><path id="a" d="M786.176 575.999V578h-1.914v-2.001h-4.784l1.068-7.999h1.914l-.834 6.004h2.636v-5h1.914v5h.954V576zM776 574.434a1.533 1.533 0 0 0-.359-.485 1.77 1.77 0 0 0-1.188-.449 1.747 1.747 0 0 0-1.181.449c-.152.138-.272.3-.359.485-.087.185-.13.385-.13.6 0 .214.043.41.13.589.087.178.207.332.359.462s.329.23.531.305c.203.073.42.11.65.11.231 0 .45-.037.654-.11.204-.074.382-.176.534-.305.152-.13.272-.284.359-.462a1.33 1.33 0 0 0 .13-.59 1.39 1.39 0 0 0-.13-.599zm.036-4.318a1.058 1.058 0 0 0-.255-.322 1.194 1.194 0 0 0-.38-.216 1.367 1.367 0 0 0-.463-.078 1.39 1.39 0 0 0-.469.078 1.194 1.194 0 0 0-.38.216c-.107.092-.193.2-.256.322a.847.847 0 0 0-.094.393c0 .14.032.27.094.39a1 1 0 0 0 .256.313c.107.088.234.158.38.21.146.052.303.078.469.078a1.367 1.367 0 0 0 .843-.288 1 1 0 0 0 .255-.313.83.83 0 0 0 .094-.39.847.847 0 0 0-.094-.393zm2.186 6.028c-.2.378-.474.705-.822.98s-.754.49-1.218.644a4.67 4.67 0 0 1-1.486.232 4.67 4.67 0 0 1-1.487-.232 3.971 3.971 0 0 1-1.218-.644 3.063 3.063 0 0 1-.821-.98c-.2-.379-.3-.792-.3-1.24a2.837 2.837 0 0 1 .399-1.454c.13-.217.285-.417.467-.6.182-.182.386-.338.614-.467a2.353 2.353 0 0 1-.379-.43 3.13 3.13 0 0 1-.286-.512 2.847 2.847 0 0 1-.243-1.129c0-.388.086-.751.256-1.09.17-.34.404-.638.7-.894a3.36 3.36 0 0 1 1.036-.606 3.576 3.576 0 0 1 1.262-.222c.45 0 .873.074 1.268.222.396.147.742.35 1.04.606.298.256.532.554.703.893.17.34.255.703.255 1.091 0 .19-.021.38-.064.571a3.29 3.29 0 0 1-.181.561 2.902 2.902 0 0 1-.283.516 2.565 2.565 0 0 1-.379.437 2.996 2.996 0 0 1 1.071 1.06 2.88 2.88 0 0 1 .396 1.447c0 .448-.1.861-.3 1.24zM790 572.5c0-6.351-4.925-11.5-11-11.5s-11 5.149-11 11.5 4.925 11.5 11 11.5 11-5.149 11-11.5z"/><path id="b" d="M829.746 571.481c.168.19.252.442.252.755 0 .61-.272 1.147-.816 1.609-.544.462-1.288.809-2.232 1.04v-.05c0-1.007.204-1.865.612-2.574.408-.71.908-1.065 1.5-1.065.288 0 .516.095.684.285zm-6.529-11.527c.104.348.156.836.156 1.465 0 2.451-.896 5.697-2.688 9.738.096-1.97.252-3.859.468-5.664.216-1.805.476-3.266.78-4.384.304-1.118.608-1.677.912-1.677.144 0 .268.174.372.522zm-8.485 16.181c0-1.141.293-2.18.878-3.114.586-.935 1.32-1.543 2.204-1.825a60.934 60.934 0 0 0-.049 1.936c0 1.109.08 2.11.241 3.003-.465.695-.85 1.171-1.156 1.428-.305.256-.61.384-.914.384-.803 0-1.204-.604-1.204-1.812zm-10.36.968c-.343-.48-.514-1.174-.514-2.084 0-1.159.211-2.056.634-2.693.423-.637.954-.956 1.592-.956h.12a4.45 4.45 0 0 0-.072.794c0 .63.132 1.225.395 1.787a3.394 3.394 0 0 0 1.138 1.365c-.128.811-.38 1.432-.755 1.862-.375.43-.818.645-1.328.645-.463 0-.866-.24-1.21-.72zm7.36-.72c0 1.209.315 2.189.947 2.942.632.753 1.437 1.129 2.413 1.129.672 0 1.26-.149 1.764-.447.504-.298 1.092-.885 1.764-1.762.64 1.473 1.569 2.209 2.785 2.209.768 0 1.544-.294 2.328-.881.434-.325.848-.687 1.242-1.085.139.195.293.38.462.551.929.943 2.233 1.415 3.913 1.415a6.782 6.782 0 0 0 3.469-.943c.254-.148.495-.3.723-.454.227-.06.446-.197.657-.415.136-.137.27-.276.402-.417.273-.25.515-.509.726-.774.075-.09.14-.188.197-.296.092-.115.182-.232.271-.35.488-.645.98-1.455 1.476-2.432.224.265.464.575.72.931.256.356.468.724.636 1.104.168.381.26.786.277 1.217a21.627 21.627 0 0 1-.637-.087 5.097 5.097 0 0 0-.732-.062c-.592 0-1.04.157-1.344.471a1.552 1.552 0 0 0-.456 1.117c0 .497.22.943.66 1.34.44.397 1.076.596 1.908.596.72 0 1.36-.19 1.92-.57a3.9 3.9 0 0 0 1.309-1.502c.312-.62.468-1.279.468-1.973a3.31 3.31 0 0 0-.396-1.601c-.264-.488-.652-1.08-1.164-1.775a9.294 9.294 0 0 1-.78-1.117c-.168-.298-.252-.57-.252-.819 0-.413.144-.918.432-1.514.112-.215.2-.43.264-.645.064-.215.096-.372.096-.472 0-.182-.088-.314-.264-.397-.176-.082-.488-.124-.936-.124-.96 0-1.593.364-1.897 1.092a137.72 137.72 0 0 1-1.164 2.706 16.223 16.223 0 0 1-.876 1.712c-.344.56-.816 1.235-1.415 2.029a8.118 8.118 0 0 1-1.574 1.16c-.92.521-1.74.782-2.46.782-1.12 0-1.88-.38-2.28-1.142 1.888-.48 3.228-1.129 4.02-1.948a4.082 4.082 0 0 0 1.188-2.94c0-.977-.28-1.75-.84-2.322-.56-.57-1.304-.856-2.232-.856-1.04 0-1.972.29-2.796.869-.825.579-1.469 1.36-1.933 2.345a7.385 7.385 0 0 0-.696 3.19c0 .369.024.72.07 1.054a11.24 11.24 0 0 1-.886.906c-.448.397-.888.596-1.32.596-.336 0-.612-.207-.828-.62-.216-.414-.356-1.1-.42-2.06 1.472-2.615 2.648-5.163 3.528-7.645.88-2.482 1.32-4.65 1.32-6.502 0-1.308-.228-2.284-.684-2.93-.456-.644-1.028-.967-1.716-.967-1.392 0-2.516 1.138-3.373 3.413-.856 2.275-1.436 5.017-1.74 8.227a6.4 6.4 0 0 0-3.204 1.278c-.953.72-1.7 1.647-2.245 2.78a8.217 8.217 0 0 0-.108.235 12.51 12.51 0 0 1-2.004.323c-.128-1.274-.564-2.345-1.308-3.214-.744-.868-1.725-1.303-2.94-1.303-.993 0-1.897.278-2.713.832-.816.554-1.456 1.324-1.92 2.308-.465.984-.697 2.105-.697 3.363 0 .313.02.619.06.917a7.347 7.347 0 0 1-1.32 1.031c-.76.455-1.468.683-2.124.683-1.616 0-2.425-.96-2.425-2.88 0-.694.097-1.331.289-1.91.192-.58.448-1.039.768-1.378.32-.339.664-.509 1.032-.509.192 0 .34.058.444.174.104.116.156.281.156.497 0 .215-.04.446-.12.695-.016.066-.04.173-.072.322a1.914 1.914 0 0 0-.048.397c0 .265.092.472.276.62.184.15.428.224.732.224.48 0 .868-.24 1.164-.72.296-.48.444-1.067.444-1.762 0-.844-.244-1.534-.732-2.072s-1.172-.807-2.052-.807c-.896 0-1.752.273-2.569.82-.816.545-1.48 1.323-1.992 2.332-.512 1.01-.768 2.184-.768 3.525 0 1.505.436 2.717 1.308 3.636.872.918 2.093 1.377 3.66 1.377.977 0 2.032-.407 3.037-.782.616-.23 1.21-.652 1.749-1.165.314.485.707.894 1.18 1.227.68.48 1.5.72 2.46.72 1.136 0 2.152-.418 3.049-1.253.896-.836 1.496-1.949 1.8-3.339a11.79 11.79 0 0 0 1.513-.16 9.323 9.323 0 0 0-.025.682z"/></defs><use fill="#fff" xlink:href="#a" transform="translate(-768 -557)"/><use fill="#fff" xlink:href="#b" transform="translate(-768 -557)"/></svg>