<?xml version="1.0" encoding="UTF-8"?>
<svg width="632px" height="562px" viewBox="0 0 632 562" version="1.1" xmlns="http://www.w3.org/2000/svg" xmlns:xlink="http://www.w3.org/1999/xlink">
    <!-- Generator: Sketch 53.2 (72643) - https://sketchapp.com -->
    <title>Artboard</title>
    <desc>Created with Sketch.</desc>
    <g id="Artboard" stroke="none" stroke-width="1" fill="none" fill-rule="evenodd">
        <g id="illu-cloudkarafka-manager" transform="translate(103.000000, -4.000000)">
            <g id="item-browser" transform="translate(131.000000, 462.000000)">
                <rect id="Rectangle-9-Copy-4" stroke="#344760" stroke-width="2" fill="#FFFFFF" fill-rule="nonzero" x="0" y="0" width="142" height="103" rx="8"></rect>
                <path d="M42.734375,60 L42.734375,48.625 L46.71875,48.625 C48.0989652,48.625 49.1458298,48.8893203 49.859375,49.4179687 C50.5729202,49.9466172 50.9296875,50.7213491 50.9296875,51.7421875 C50.9296875,52.299482 50.7864598,52.7903625 50.5,53.2148437 C50.2135402,53.639325 49.8151067,53.9505198 49.3046875,54.1484375 C49.8880238,54.2942716 50.3476546,54.5885395 50.6835938,55.03125 C51.0195329,55.4739605 51.1875,56.0156218 51.1875,56.65625 C51.1875,57.7500055 50.8385452,58.5781222 50.140625,59.140625 C49.4427048,59.7031278 48.4479231,59.9895833 47.15625,60 L42.734375,60 Z M45.078125,55.046875 L45.078125,58.1171875 L47.0859375,58.1171875 C47.6380236,58.1171875 48.0690089,57.9856784 48.3789062,57.7226562 C48.6888036,57.4596341 48.84375,57.0963565 48.84375,56.6328125 C48.84375,55.5911406 48.3046929,55.0625001 47.2265625,55.046875 L45.078125,55.046875 Z M45.078125,53.390625 L46.8125,53.390625 C47.9947976,53.3697916 48.5859375,52.8984421 48.5859375,51.9765625 C48.5859375,51.4609349 48.4361994,51.0898449 48.1367188,50.8632812 C47.8372381,50.6367176 47.3645866,50.5234375 46.71875,50.5234375 L45.078125,50.5234375 L45.078125,53.390625 Z M57.546875,53.6640625 C57.2395818,53.6223956 56.9687512,53.6015625 56.734375,53.6015625 C55.8802041,53.6015625 55.3203138,53.8906221 55.0546875,54.46875 L55.0546875,60 L52.796875,60 L52.796875,51.546875 L54.9296875,51.546875 L54.9921875,52.5546875 C55.4453148,51.778642 56.0729127,51.390625 56.875,51.390625 C57.1250012,51.390625 57.3593739,51.4244788 57.578125,51.4921875 L57.546875,53.6640625 Z M58.28125,55.6953125 C58.28125,54.8567666 58.4427067,54.1093783 58.765625,53.453125 C59.0885433,52.7968717 59.5533824,52.2890643 60.1601562,51.9296875 C60.7669301,51.5703107 61.4713502,51.390625 62.2734375,51.390625 C63.4140682,51.390625 64.3450485,51.7395798 65.0664062,52.4375 C65.787764,53.1354202 66.1901037,54.0833273 66.2734375,55.28125 L66.2890625,55.859375 C66.2890625,57.1562565 65.927087,58.1966107 65.203125,58.9804687 C64.479163,59.7643268 63.5078186,60.15625 62.2890625,60.15625 C61.0703064,60.15625 60.0976599,59.7656289 59.3710938,58.984375 C58.6445276,58.2031211 58.28125,57.1406317 58.28125,55.796875 L58.28125,55.6953125 Z M60.5390625,55.859375 C60.5390625,56.6614623 60.6901027,57.2747375 60.9921875,57.6992187 C61.2942723,58.1237 61.7265597,58.3359375 62.2890625,58.3359375 C62.8359402,58.3359375 63.2630193,58.1263042 63.5703125,57.7070312 C63.8776057,57.2877583 64.03125,56.6171921 64.03125,55.6953125 C64.03125,54.9088502 63.8776057,54.2994813 63.5703125,53.8671875 C63.2630193,53.4348937 62.830732,53.21875 62.2734375,53.21875 C61.7213514,53.21875 61.2942723,53.4335916 60.9921875,53.8632812 C60.6901027,54.2929709 60.5390625,54.9583288 60.5390625,55.859375 Z M75.03125,56.9296875 L76.140625,51.546875 L78.3203125,51.546875 L76.1640625,60 L74.2734375,60 L72.671875,54.6796875 L71.0703125,60 L69.1875,60 L67.03125,51.546875 L69.2109375,51.546875 L70.3125,56.921875 L71.859375,51.546875 L73.4921875,51.546875 L75.03125,56.9296875 Z M84.015625,57.6640625 C84.015625,57.3880195 83.8789076,57.1705737 83.6054688,57.0117187 C83.3320299,56.8528638 82.8932322,56.7109381 82.2890625,56.5859375 C80.2786358,56.1640604 79.2734375,55.3099023 79.2734375,54.0234375 C79.2734375,53.2734337 79.5846323,52.6471379 80.2070312,52.1445312 C80.8294302,51.6419246 81.6432241,51.390625 82.6484375,51.390625 C83.7213595,51.390625 84.5794239,51.6432266 85.2226562,52.1484375 C85.8658886,52.6536484 86.1875,53.3098918 86.1875,54.1171875 L83.9296875,54.1171875 C83.9296875,53.7942692 83.8255219,53.5273448 83.6171875,53.3164062 C83.4088531,53.1054677 83.0833355,53 82.640625,53 C82.2604148,53 81.9661469,53.0859366 81.7578125,53.2578125 C81.5494781,53.4296884 81.4453125,53.6484362 81.4453125,53.9140625 C81.4453125,54.1640637 81.5638009,54.3658846 81.8007812,54.5195312 C82.0377616,54.6731779 82.4374972,54.805989 83,54.9179687 C83.5625028,55.0299485 84.0364564,55.1562493 84.421875,55.296875 C85.6145893,55.7343772 86.2109375,56.4921821 86.2109375,57.5703125 C86.2109375,58.3411497 85.8802116,58.9648414 85.21875,59.4414062 C84.5572884,59.9179711 83.7031302,60.15625 82.65625,60.15625 C81.9479131,60.15625 81.3190132,60.0299492 80.7695312,59.7773437 C80.2200493,59.5247383 79.7890641,59.1783876 79.4765625,58.7382812 C79.1640609,58.2981749 79.0078125,57.8229192 79.0078125,57.3125 L81.1484375,57.3125 C81.1692709,57.7135437 81.317707,58.0208323 81.59375,58.234375 C81.869793,58.4479177 82.239581,58.5546875 82.703125,58.5546875 C83.1354188,58.5546875 83.4622385,58.4726571 83.6835938,58.3085937 C83.904949,58.1445304 84.015625,57.9296888 84.015625,57.6640625 Z M91.5546875,60.15625 C90.315098,60.15625 89.3059935,59.7760455 88.5273438,59.015625 C87.748694,58.2552045 87.359375,57.2421938 87.359375,55.9765625 L87.359375,55.7578125 C87.359375,54.9088499 87.5234359,54.1497429 87.8515625,53.4804687 C88.1796891,52.8111946 88.6445282,52.2955747 89.2460938,51.9335937 C89.8476593,51.5716128 90.5338503,51.390625 91.3046875,51.390625 C92.4609433,51.390625 93.3710904,51.7552047 94.0351562,52.484375 C94.6992221,53.2135453 95.03125,54.2473891 95.03125,55.5859375 L95.03125,56.5078125 L89.6484375,56.5078125 C89.7213545,57.0598986 89.9414044,57.5026025 90.3085938,57.8359375 C90.6757831,58.1692725 91.1406222,58.3359375 91.703125,58.3359375 C92.572921,58.3359375 93.2526017,58.0208365 93.7421875,57.390625 L94.8515625,58.6328125 C94.5130191,59.1119816 94.0546904,59.4856757 93.4765625,59.7539062 C92.8984346,60.0221368 92.257816,60.15625 91.5546875,60.15625 Z M91.296875,53.21875 C90.8489561,53.21875 90.4856785,53.3697902 90.2070312,53.671875 C89.928384,53.9739598 89.7500004,54.4062472 89.671875,54.96875 L92.8125,54.96875 L92.8125,54.7890625 C92.8020833,54.28906 92.666668,53.9023451 92.40625,53.6289062 C92.145832,53.3554674 91.7760441,53.21875 91.296875,53.21875 Z M101.0625,53.6640625 C100.755207,53.6223956 100.484376,53.6015625 100.25,53.6015625 C99.395829,53.6015625 98.8359388,53.8906221 98.5703125,54.46875 L98.5703125,60 L96.3125,60 L96.3125,51.546875 L98.4453125,51.546875 L98.5078125,52.5546875 C98.9609398,51.778642 99.588538,51.390625 100.390625,51.390625 C100.640626,51.390625 100.874999,51.4244788 101.09375,51.4921875 L101.0625,53.6640625 Z" id="Browser" fill="#344760" fill-rule="nonzero"></path>
                <path d="M0,16 L142,16" id="Line" stroke="#344760" stroke-width="2" stroke-linecap="square"></path>
                <circle id="Oval-4" fill="#E64D43" fill-rule="nonzero" cx="8" cy="8" r="4"></circle>
                <circle id="Oval-4-Copy" fill="#F0AE00" fill-rule="nonzero" cx="18" cy="8" r="4"></circle>
                <circle id="Oval-4-Copy-2" fill="#11B62A" fill-rule="nonzero" cx="29" cy="8" r="4"></circle>
            </g>
            <path d="M207.30075,442.542977 C207.613248,442.542977 207.828092,442.689461 207.945279,442.982429 C208.062466,443.275397 208.023404,443.519537 207.828092,443.714849 L201.968731,449.515617 C201.851544,449.671867 201.695294,449.749991 201.499982,449.749991 C201.30467,449.749991 201.14842,449.671867 201.031233,449.515617 L195.171872,443.714849 C194.97656,443.519537 194.937498,443.275397 195.054685,442.982429 C195.171872,442.689461 195.386716,442.542977 195.699215,442.542977 L199.859361,442.542977 L199.859361,426.957077 L195.699215,426.957077 C195.386716,426.957077 195.171872,426.810593 195.054685,426.517625 C194.937498,426.224657 194.97656,425.980516 195.171872,425.785204 L201.031233,419.984437 C201.14842,419.828187 201.30467,419.750063 201.499982,419.750063 C201.695294,419.750063 201.851544,419.828187 201.968731,419.984437 L207.828092,425.785204 C208.023404,425.980516 208.062466,426.224657 207.945279,426.517625 C207.828092,426.810593 207.613248,426.957077 207.30075,426.957077 L203.140603,426.957077 L203.140603,442.542977 L207.30075,442.542977 Z" id="item-arrows" fill="#3680CA" fill-rule="nonzero"></path>
            <g id="API" transform="translate(152.000000, 341.000000)" fill-rule="nonzero">
                <circle id="Oval-3" fill="#002952" cx="50" cy="33" r="33"></circle>
                <path d="M40.0625,29 L37.71875,29 L37.71875,24.125 L33.1484375,24.125 L33.1484375,29 L30.8046875,29 L30.8046875,17.625 L33.1484375,17.625 L33.1484375,22.234375 L37.71875,22.234375 L37.71875,17.625 L40.0625,17.625 L40.0625,29 Z M50.671875,19.5234375 L47.1875,19.5234375 L47.1875,29 L44.84375,29 L44.84375,19.5234375 L41.40625,19.5234375 L41.40625,17.625 L50.671875,17.625 L50.671875,19.5234375 Z M60.5703125,19.5234375 L57.0859375,19.5234375 L57.0859375,29 L54.7421875,29 L54.7421875,19.5234375 L51.3046875,19.5234375 L51.3046875,17.625 L60.5703125,17.625 L60.5703125,19.5234375 Z M64.25,24.9921875 L64.25,29 L61.90625,29 L61.90625,17.625 L66.34375,17.625 C67.1979209,17.625 67.9492155,17.7812484 68.5976562,18.09375 C69.246097,18.4062516 69.7447899,18.8502575 70.09375,19.4257812 C70.4427101,20.001305 70.6171875,20.6562463 70.6171875,21.390625 C70.6171875,22.5052139 70.2356809,23.3841114 69.4726562,24.0273438 C68.7096316,24.6705761 67.6536526,24.9921875 66.3046875,24.9921875 L64.25,24.9921875 Z M64.25,23.09375 L66.34375,23.09375 C66.9635448,23.09375 67.4361963,22.9479181 67.7617188,22.65625 C68.0872412,22.3645819 68.25,21.9479194 68.25,21.40625 C68.25,20.8489555 68.0859391,20.3984392 67.7578125,20.0546875 C67.4296859,19.7109358 66.9765654,19.5338542 66.3984375,19.5234375 L64.25,19.5234375 L64.25,23.09375 Z M45.9296875,45.65625 L41.8203125,45.65625 L41.0390625,48 L38.546875,48 L42.78125,36.625 L44.953125,36.625 L49.2109375,48 L46.71875,48 L45.9296875,45.65625 Z M42.453125,43.7578125 L45.296875,43.7578125 L43.8671875,39.5 L42.453125,43.7578125 Z M57.734375,43.8515625 C57.734375,45.1536523 57.438805,46.1966107 56.8476562,46.9804688 C56.2565075,47.7643268 55.4583384,48.15625 54.453125,48.15625 C53.5989541,48.15625 52.9088568,47.859378 52.3828125,47.265625 L52.3828125,51.25 L50.125,51.25 L50.125,39.546875 L52.21875,39.546875 L52.296875,40.375 C52.8437527,39.7187467 53.5572873,39.390625 54.4375,39.390625 C55.4791719,39.390625 56.2890596,39.7760378 56.8671875,40.546875 C57.4453154,41.3177122 57.734375,42.3802016 57.734375,43.734375 L57.734375,43.8515625 Z M55.4765625,43.6875 C55.4765625,42.9010377 55.337241,42.294273 55.0585938,41.8671875 C54.7799465,41.440102 54.3750027,41.2265625 53.84375,41.2265625 C53.1354131,41.2265625 52.6484388,41.4973931 52.3828125,42.0390625 L52.3828125,45.5 C52.6588555,46.0572945 53.1510381,46.3359375 53.859375,46.3359375 C54.9375054,46.3359375 55.4765625,45.4531338 55.4765625,43.6875 Z M61.515625,48 L59.25,48 L59.25,39.546875 L61.515625,39.546875 L61.515625,48 Z M59.1171875,37.359375 C59.1171875,37.0208316 59.2304676,36.7421886 59.4570312,36.5234375 C59.6835949,36.3046864 59.9921855,36.1953125 60.3828125,36.1953125 C60.7682311,36.1953125 61.0755197,36.3046864 61.3046875,36.5234375 C61.5338553,36.7421886 61.6484375,37.0208316 61.6484375,37.359375 C61.6484375,37.7031267 61.5325532,37.9843739 61.3007812,38.203125 C61.0690093,38.4218761 60.7630227,38.53125 60.3828125,38.53125 C60.0026023,38.53125 59.6966157,38.4218761 59.4648438,38.203125 C59.2330718,37.9843739 59.1171875,37.7031267 59.1171875,37.359375 Z" id="HTTP-Api" fill="#FFFFFF"></path>
                <path d="M10.9755859,38 L1.22949219,38 L1.22949219,36.0664062 L5.82910156,31.1640625 C6.46061514,30.4739549 6.92773286,29.8717474 7.23046875,29.3574219 C7.53320464,28.8430964 7.68457031,28.35482 7.68457031,27.8925781 C7.68457031,27.2610646 7.5250667,26.7646502 7.20605469,26.4033203 C6.88704268,26.0419904 6.43131807,25.8613281 5.83886719,25.8613281 C5.20084316,25.8613281 4.69791851,26.0810525 4.33007812,26.5205078 C3.96223774,26.9599631 3.77832031,27.5377568 3.77832031,28.2539062 L0.946289062,28.2539062 C0.946289062,27.3880165 1.15299272,26.5970088 1.56640625,25.8808594 C1.97981978,25.16471 2.56412383,24.6031921 3.31933594,24.1962891 C4.07454805,23.789386 4.93065928,23.5859375 5.88769531,23.5859375 C7.35254639,23.5859375 8.49023032,23.9374965 9.30078125,24.640625 C10.1113322,25.3437535 10.5166016,26.3365821 10.5166016,27.6191406 C10.5166016,28.3222691 10.3343117,29.0384078 9.96972656,29.7675781 C9.60514141,30.4967484 8.98014766,31.3463493 8.09472656,32.3164062 L4.86230469,35.7246094 L10.9755859,35.7246094 L10.9755859,38 Z" id="2" fill="#FDB913"></path>
            </g>
            <path d="M207.30075,323.542977 C207.613248,323.542977 207.828092,323.689461 207.945279,323.982429 C208.062466,324.275397 208.023404,324.519537 207.828092,324.714849 L201.968731,330.515617 C201.851544,330.671867 201.695294,330.749991 201.499982,330.749991 C201.30467,330.749991 201.14842,330.671867 201.031233,330.515617 L195.171872,324.714849 C194.97656,324.519537 194.937498,324.275397 195.054685,323.982429 C195.171872,323.689461 195.386716,323.542977 195.699215,323.542977 L199.859361,323.542977 L199.859361,307.957077 L195.699215,307.957077 C195.386716,307.957077 195.171872,307.810593 195.054685,307.517625 C194.937498,307.224657 194.97656,306.980516 195.171872,306.785204 L201.031233,300.984437 C201.14842,300.828187 201.30467,300.750063 201.499982,300.750063 C201.695294,300.750063 201.851544,300.828187 201.968731,300.984437 L207.828092,306.785204 C208.023404,306.980516 208.062466,307.224657 207.945279,307.517625 C207.828092,307.810593 207.613248,307.957077 207.30075,307.957077 L203.140603,307.957077 L203.140603,323.542977 L207.30075,323.542977 Z" id="item-arrows" fill="#3680CA" fill-rule="nonzero"></path>
            <g id="cloudkarafka-manager" transform="translate(97.000000, 159.000000)" fill-rule="nonzero">
                <rect id="bg-cloudkarafka" fill="#3FA9EC" x="0" y="-2.84217094e-14" width="209" height="131" rx="8"></rect>
                <path d="M114.194961,41.4733424 C113.248286,41.4722354 112.335578,41.8259996 111.636941,42.4648276 L108.557931,40.5145306 C108.939109,39.557962 108.973991,38.4982541 108.656545,37.518689 L111.61912,35.6408672 C113.025352,36.9444556 115.182662,36.995526 116.649005,35.7599406 C118.115347,34.5243551 118.430837,32.389627 117.384585,30.7827078 C116.338334,29.1757886 114.258474,28.6006518 112.535282,29.4417457 C110.812089,30.2828395 109.986003,32.276374 110.609219,34.0897781 L107.726248,35.9129464 C107.118974,35.2426381 106.320336,34.7751934 105.438525,34.5739365 L105.438525,31.5816593 C107.290416,31.0849489 108.481775,29.2859665 108.216345,27.3870805 C107.950916,25.4881945 106.311928,24.0848433 104.394818,24.1149711 C102.477707,24.1450988 100.883626,25.5992583 100.677995,27.5055472 C100.472364,29.411836 101.719664,31.1724944 103.586248,31.6107682 L103.586248,34.5477979 C102.68054,34.7288321 101.854553,35.1897226 101.224862,35.8654217 L98.4191196,34.0879959 C99.0434026,32.2728758 98.2168064,30.2771126 96.4919426,29.4349515 C94.7670788,28.5927905 92.6850126,29.1684055 91.6376862,30.7769756 C90.5903598,32.3855457 90.9063046,34.5224854 92.3742992,35.7591674 C93.8422937,36.9958494 96.0018491,36.9443442 97.4092186,35.639085 L100.274961,37.4551246 C99.9269576,38.4719655 99.9615955,39.5807989 100.372387,40.5739365 L97.3896146,42.4648276 C95.9734224,41.1743128 93.8175301,41.1414563 92.362669,42.3882154 C90.907808,43.6349744 90.6101052,45.770466 91.6685083,47.3675921 C92.7269115,48.9647181 94.8095908,49.5227488 96.5247413,48.6687655 C98.2398919,47.8147823 99.0497809,45.8165253 98.413179,44.009382 L101.429219,42.0971048 C102.030163,42.6631154 102.777941,43.0490455 103.587436,43.2109662 L103.587436,46.5109662 C101.722873,46.9492301 100.477189,48.7082696 100.682833,50.6125755 C100.888477,52.5168815 102.480979,53.9694276 104.39612,53.9995245 C106.31126,54.0296213 107.948618,52.627833 108.213999,50.7309293 C108.47938,48.8340256 107.289585,47.0367121 105.439714,46.5400751 L105.439714,43.1877979 C106.225721,43.0082003 106.947371,42.6163477 107.52605,42.0549266 L110.615159,44.0123523 C110.066206,45.5718849 110.5896,47.3073674 111.909258,48.303356 C113.228917,49.2993446 115.041397,49.3268221 116.390641,48.3712944 C117.739885,47.4157667 118.315647,45.6969476 117.81422,44.1214911 C117.312794,42.5460347 115.849477,41.4762009 114.196149,41.4763127 L114.194961,41.4733424 Z M114.194961,30.739283 C115.049432,30.7392831 115.819754,31.2540354 116.146691,32.0434863 C116.473627,32.8329371 116.292783,33.741597 115.688497,34.3457139 C115.08421,34.9498308 114.175499,35.1304186 113.38614,34.8032604 C112.596781,34.4761022 112.082246,33.7056347 112.082486,32.8511642 C112.084123,31.6852512 113.029048,30.7405919 114.194961,30.739283 Z M94.8286245,34.9642335 C93.6621689,34.9635774 92.7170096,34.0176204 92.7173375,32.8511646 C92.7176655,31.6847088 93.6633567,30.7392835 94.8298125,30.7392834 C95.9962683,30.7392833 96.9419597,31.6847085 96.9422879,32.8511642 C96.9413057,34.0175412 95.9961893,34.9629234 94.8298126,34.9642335 L94.8286245,34.9642335 Z M102.340506,27.9151246 C102.340506,26.7484368 103.286293,25.8026494 104.452981,25.8026494 C105.619669,25.8026494 106.565456,26.7484368 106.565456,27.9151246 C106.565456,29.0818125 105.619669,30.0275999 104.452981,30.0275999 C103.286836,30.0262903 102.341815,29.0812696 102.340506,27.9151246 Z M94.8298126,47.3824514 C93.6631248,47.3824514 92.7173374,46.436664 92.7173374,45.2699761 C92.7173374,44.1032882 93.6631248,43.1575009 94.8298126,43.1575009 C95.9965005,43.1575009 96.9422879,44.1032882 96.9422879,45.2699761 C96.9409783,46.4361211 95.9959576,47.3811418 94.8298126,47.3824514 Z M106.565456,50.2066098 C106.565456,51.0610263 106.050768,51.8313114 105.26139,52.1582824 C104.472012,52.4852534 103.563399,52.304519 102.959235,51.7003553 C102.355072,51.0961917 102.174337,50.1875784 102.501308,49.3982005 C102.828279,48.6088226 103.598564,48.0941345 104.452981,48.0941345 C105.619126,48.0954441 106.564147,49.0404648 106.565456,50.2066098 Z M104.452981,41.10859 C103.222316,41.10859 102.224664,40.1109385 102.224664,38.8802731 C102.224664,37.6496077 103.222316,36.6519563 104.452981,36.6519563 C105.683646,36.6519563 106.681298,37.6496077 106.681298,38.8802731 C106.679661,40.1102601 105.682968,41.1069537 104.452981,41.10859 Z M114.195555,47.3836395 C113.028867,47.3836395 112.08308,46.4378521 112.08308,45.2711642 C112.08308,44.1044764 113.028867,43.158689 114.195555,43.158689 C115.362243,43.158689 116.30803,44.1044764 116.30803,45.2711642 C116.306066,46.4370769 115.360875,47.3814705 114.194961,47.3824514 L114.195555,47.3836395 Z" id="Shape" fill="#FFFFFF"></path>
                <path d="M65.578125,76.2109375 C65.4895829,77.434902 65.0377645,78.398434 64.2226562,79.1015625 C63.407548,79.804691 62.33334,80.15625 61,80.15625 C59.5416594,80.15625 58.3945354,79.6653695 57.5585938,78.6835938 C56.7226521,77.701818 56.3046875,76.3541752 56.3046875,74.640625 L56.3046875,73.9453125 C56.3046875,72.851557 56.4973939,71.888025 56.8828125,71.0546875 C57.2682311,70.22135 57.8190068,69.5820335 58.5351562,69.1367188 C59.2513057,68.691404 60.0833286,68.46875 61.03125,68.46875 C62.3437566,68.46875 63.4010377,68.820309 64.203125,69.5234375 C65.0052123,70.226566 65.4687494,71.2135353 65.59375,72.484375 L63.25,72.484375 C63.192708,71.7499963 62.988283,71.2174496 62.6367188,70.8867188 C62.2851545,70.5559879 61.7500036,70.390625 61.03125,70.390625 C60.2499961,70.390625 59.6653665,70.6705701 59.2773438,71.2304688 C58.889321,71.7903674 58.6901042,72.6588483 58.6796875,73.8359375 L58.6796875,74.6953125 C58.6796875,75.9244853 58.8658836,76.8229138 59.2382812,77.390625 C59.6106789,77.9583362 60.1979127,78.2421875 61,78.2421875 C61.723962,78.2421875 62.2643211,78.0768246 62.6210938,77.7460938 C62.9778664,77.4153629 63.1822914,76.9036493 63.234375,76.2109375 L65.578125,76.2109375 Z M69.3515625,80 L67.0859375,80 L67.0859375,68 L69.3515625,68 L69.3515625,80 Z M70.859375,75.6953125 C70.859375,74.8567666 71.0208317,74.1093783 71.34375,73.453125 C71.6666683,72.7968717 72.1315074,72.2890643 72.7382812,71.9296875 C73.3450551,71.5703107 74.0494752,71.390625 74.8515625,71.390625 C75.9921932,71.390625 76.9231735,71.7395798 77.6445312,72.4375 C78.365889,73.1354202 78.7682287,74.0833273 78.8515625,75.28125 L78.8671875,75.859375 C78.8671875,77.1562565 78.505212,78.1966107 77.78125,78.9804688 C77.057288,79.7643268 76.0859436,80.15625 74.8671875,80.15625 C73.6484314,80.15625 72.6757849,79.7656289 71.9492188,78.984375 C71.2226526,78.2031211 70.859375,77.1406317 70.859375,75.796875 L70.859375,75.6953125 Z M73.1171875,75.859375 C73.1171875,76.6614623 73.2682277,77.2747375 73.5703125,77.6992188 C73.8723973,78.1237 74.3046847,78.3359375 74.8671875,78.3359375 C75.4140652,78.3359375 75.8411443,78.1263042 76.1484375,77.7070312 C76.4557307,77.2877583 76.609375,76.6171921 76.609375,75.6953125 C76.609375,74.9088502 76.4557307,74.2994813 76.1484375,73.8671875 C75.8411443,73.4348937 75.408857,73.21875 74.8515625,73.21875 C74.2994764,73.21875 73.8723973,73.4335916 73.5703125,73.8632812 C73.2682277,74.2929709 73.1171875,74.9583288 73.1171875,75.859375 Z M85.3203125,79.140625 C84.763018,79.8177117 83.9921924,80.15625 83.0078125,80.15625 C82.101558,80.15625 81.4101586,79.8958359 80.9335938,79.375 C80.4570289,78.8541641 80.2135417,78.0911509 80.203125,77.0859375 L80.203125,71.546875 L82.4609375,71.546875 L82.4609375,77.0078125 C82.4609375,77.8880252 82.8619752,78.328125 83.6640625,78.328125 C84.4296913,78.328125 84.9557277,78.0625027 85.2421875,77.53125 L85.2421875,71.546875 L87.5078125,71.546875 L87.5078125,80 L85.3828125,80 L85.3203125,79.140625 Z M88.859375,75.7109375 C88.859375,74.3932226 89.154945,73.3437539 89.7460938,72.5625 C90.3372425,71.7812461 91.1458282,71.390625 92.171875,71.390625 C92.9947958,71.390625 93.6744765,71.6979136 94.2109375,72.3125 L94.2109375,68 L96.4765625,68 L96.4765625,80 L94.4375,80 L94.328125,79.1015625 C93.7656222,79.804691 93.0416711,80.15625 92.15625,80.15625 C91.1614534,80.15625 90.3632843,79.7643268 89.7617188,78.9804688 C89.1601532,78.1966107 88.859375,77.1067778 88.859375,75.7109375 Z M91.1171875,75.875 C91.1171875,76.6666706 91.255207,77.2734354 91.53125,77.6953125 C91.807293,78.1171896 92.2083307,78.328125 92.734375,78.328125 C93.4322952,78.328125 93.9244777,78.0338571 94.2109375,77.4453125 L94.2109375,74.109375 C93.9296861,73.5208304 93.4427118,73.2265625 92.75,73.2265625 C91.6614529,73.2265625 91.1171875,74.1093662 91.1171875,75.875 Z M101.9375,75.4375 L100.71875,76.75 L100.71875,80 L98.375,80 L98.375,68.625 L100.71875,68.625 L100.71875,73.78125 L101.75,72.3671875 L104.648438,68.625 L107.53125,68.625 L103.492188,73.6796875 L107.648438,80 L104.859375,80 L101.9375,75.4375 Z M113.28125,80 C113.177083,79.796874 113.101563,79.5442723 113.054688,79.2421875 C112.50781,79.8515655 111.796879,80.15625 110.921875,80.15625 C110.093746,80.15625 109.407555,79.9166691 108.863281,79.4375 C108.319008,78.9583309 108.046875,78.3541703 108.046875,77.625 C108.046875,76.7291622 108.378903,76.0416691 109.042969,75.5625 C109.707035,75.0833309 110.66666,74.8411459 111.921875,74.8359375 L112.960938,74.8359375 L112.960938,74.3515625 C112.960938,73.9609355 112.860678,73.6484387 112.660156,73.4140625 C112.459634,73.1796863 112.143231,73.0625 111.710938,73.0625 C111.330727,73.0625 111.032553,73.1536449 110.816406,73.3359375 C110.600259,73.5182301 110.492188,73.7682276 110.492188,74.0859375 L108.234375,74.0859375 C108.234375,73.5963517 108.385415,73.1432312 108.6875,72.7265625 C108.989585,72.3098938 109.416664,71.9830741 109.96875,71.7460938 C110.520836,71.5091134 111.140622,71.390625 111.828125,71.390625 C112.869797,71.390625 113.696612,71.6523411 114.308594,72.1757812 C114.920576,72.6992214 115.226562,73.4348911 115.226562,74.3828125 L115.226562,78.046875 C115.231771,78.8489623 115.343749,79.4557271 115.5625,79.8671875 L115.5625,80 L113.28125,80 Z M111.414062,78.4296875 C111.747398,78.4296875 112.054686,78.3554695 112.335938,78.2070312 C112.617189,78.058593 112.82552,77.8593762 112.960938,77.609375 L112.960938,76.15625 L112.117188,76.15625 C110.986974,76.15625 110.385417,76.5468711 110.3125,77.328125 L110.304688,77.4609375 C110.304688,77.7421889 110.403645,77.9739574 110.601562,78.15625 C110.79948,78.3385426 111.070311,78.4296875 111.414062,78.4296875 Z M121.710938,73.6640625 C121.403644,73.6223956 121.132814,73.6015625 120.898438,73.6015625 C120.044267,73.6015625 119.484376,73.8906221 119.21875,74.46875 L119.21875,80 L116.960938,80 L116.960938,71.546875 L119.09375,71.546875 L119.15625,72.5546875 C119.609377,71.778642 120.236975,71.390625 121.039062,71.390625 C121.289064,71.390625 121.523436,71.4244788 121.742188,71.4921875 L121.710938,73.6640625 Z M127.695312,80 C127.591145,79.796874 127.515625,79.5442723 127.46875,79.2421875 C126.921872,79.8515655 126.210942,80.15625 125.335938,80.15625 C124.507808,80.15625 123.821617,79.9166691 123.277344,79.4375 C122.73307,78.9583309 122.460938,78.3541703 122.460938,77.625 C122.460938,76.7291622 122.792965,76.0416691 123.457031,75.5625 C124.121097,75.0833309 125.080723,74.8411459 126.335938,74.8359375 L127.375,74.8359375 L127.375,74.3515625 C127.375,73.9609355 127.274741,73.6484387 127.074219,73.4140625 C126.873697,73.1796863 126.557294,73.0625 126.125,73.0625 C125.74479,73.0625 125.446616,73.1536449 125.230469,73.3359375 C125.014322,73.5182301 124.90625,73.7682276 124.90625,74.0859375 L122.648438,74.0859375 C122.648438,73.5963517 122.799478,73.1432312 123.101562,72.7265625 C123.403647,72.3098938 123.830726,71.9830741 124.382812,71.7460938 C124.934899,71.5091134 125.554684,71.390625 126.242188,71.390625 C127.283859,71.390625 128.110674,71.6523411 128.722656,72.1757812 C129.334638,72.6992214 129.640625,73.4348911 129.640625,74.3828125 L129.640625,78.046875 C129.645833,78.8489623 129.757811,79.4557271 129.976562,79.8671875 L129.976562,80 L127.695312,80 Z M125.828125,78.4296875 C126.16146,78.4296875 126.468749,78.3554695 126.75,78.2070312 C127.031251,78.058593 127.239583,77.8593762 127.375,77.609375 L127.375,76.15625 L126.53125,76.15625 C125.401036,76.15625 124.79948,76.5468711 124.726562,77.328125 L124.71875,77.4609375 C124.71875,77.7421889 124.817707,77.9739574 125.015625,78.15625 C125.213543,78.3385426 125.484373,78.4296875 125.828125,78.4296875 Z M131.992188,80 L131.992188,73.203125 L130.734375,73.203125 L130.734375,71.546875 L131.992188,71.546875 L131.992188,70.828125 C131.992188,69.8802036 132.26432,69.1445339 132.808594,68.6210938 C133.352867,68.0976536 134.114578,67.8359375 135.09375,67.8359375 C135.406252,67.8359375 135.78906,67.8880203 136.242188,67.9921875 L136.21875,69.7421875 C136.031249,69.6953123 135.802085,69.671875 135.53125,69.671875 C134.682287,69.671875 134.257812,70.0703085 134.257812,70.8671875 L134.257812,71.546875 L135.9375,71.546875 L135.9375,73.203125 L134.257812,73.203125 L134.257812,80 L131.992188,80 Z M140.179688,76.609375 L139.367188,77.421875 L139.367188,80 L137.109375,80 L137.109375,68 L139.367188,68 L139.367188,74.6484375 L139.804688,74.0859375 L141.96875,71.546875 L144.679688,71.546875 L141.625,75.0703125 L144.945312,80 L142.351562,80 L140.179688,76.609375 Z M150.554688,80 C150.45052,79.796874 150.375,79.5442723 150.328125,79.2421875 C149.781247,79.8515655 149.070317,80.15625 148.195312,80.15625 C147.367183,80.15625 146.680992,79.9166691 146.136719,79.4375 C145.592445,78.9583309 145.320312,78.3541703 145.320312,77.625 C145.320312,76.7291622 145.65234,76.0416691 146.316406,75.5625 C146.980472,75.0833309 147.940098,74.8411459 149.195312,74.8359375 L150.234375,74.8359375 L150.234375,74.3515625 C150.234375,73.9609355 150.134116,73.6484387 149.933594,73.4140625 C149.733072,73.1796863 149.416669,73.0625 148.984375,73.0625 C148.604165,73.0625 148.305991,73.1536449 148.089844,73.3359375 C147.873697,73.5182301 147.765625,73.7682276 147.765625,74.0859375 L145.507812,74.0859375 C145.507812,73.5963517 145.658853,73.1432312 145.960938,72.7265625 C146.263022,72.3098938 146.690101,71.9830741 147.242188,71.7460938 C147.794274,71.5091134 148.414059,71.390625 149.101562,71.390625 C150.143234,71.390625 150.970049,71.6523411 151.582031,72.1757812 C152.194013,72.6992214 152.5,73.4348911 152.5,74.3828125 L152.5,78.046875 C152.505208,78.8489623 152.617186,79.4557271 152.835938,79.8671875 L152.835938,80 L150.554688,80 Z M148.6875,78.4296875 C149.020835,78.4296875 149.328124,78.3554695 149.609375,78.2070312 C149.890626,78.058593 150.098958,77.8593762 150.234375,77.609375 L150.234375,76.15625 L149.390625,76.15625 C148.260411,76.15625 147.658855,76.5468711 147.585938,77.328125 L147.578125,77.4609375 C147.578125,77.7421889 147.677082,77.9739574 147.875,78.15625 C148.072918,78.3385426 148.343748,78.4296875 148.6875,78.4296875 Z M76.703125,87.625 L79.625,95.875 L82.53125,87.625 L85.609375,87.625 L85.609375,99 L83.2578125,99 L83.2578125,95.890625 L83.4921875,90.5234375 L80.421875,99 L78.8125,99 L75.75,90.53125 L75.984375,95.890625 L75.984375,99 L73.640625,99 L73.640625,87.625 L76.703125,87.625 Z M92.40625,99 C92.3020828,98.796874 92.2265627,98.5442723 92.1796875,98.2421875 C91.6328098,98.8515655 90.9218794,99.15625 90.046875,99.15625 C89.2187459,99.15625 88.5325548,98.9166691 87.9882812,98.4375 C87.4440077,97.9583309 87.171875,97.3541703 87.171875,96.625 C87.171875,95.7291622 87.5039029,95.0416691 88.1679688,94.5625 C88.8320346,94.0833309 89.7916604,93.8411459 91.046875,93.8359375 L92.0859375,93.8359375 L92.0859375,93.3515625 C92.0859375,92.9609355 91.9856781,92.6484387 91.7851562,92.4140625 C91.5846344,92.1796863 91.2682313,92.0625 90.8359375,92.0625 C90.4557273,92.0625 90.1575532,92.1536449 89.9414062,92.3359375 C89.7252593,92.5182301 89.6171875,92.7682276 89.6171875,93.0859375 L87.359375,93.0859375 C87.359375,92.5963517 87.5104152,92.1432312 87.8125,91.7265625 C88.1145848,91.3098938 88.5416639,90.9830741 89.09375,90.7460938 C89.6458361,90.5091134 90.2656216,90.390625 90.953125,90.390625 C91.9947969,90.390625 92.8216115,90.6523411 93.4335938,91.1757812 C94.045576,91.6992214 94.3515625,92.4348911 94.3515625,93.3828125 L94.3515625,97.046875 C94.3567709,97.8489623 94.4687489,98.4557271 94.6875,98.8671875 L94.6875,99 L92.40625,99 Z M90.5390625,97.4296875 C90.8723975,97.4296875 91.1796861,97.3554695 91.4609375,97.2070312 C91.7421889,97.058593 91.9505202,96.8593762 92.0859375,96.609375 L92.0859375,95.15625 L91.2421875,95.15625 C90.1119735,95.15625 89.510417,95.5468711 89.4375,96.328125 L89.4296875,96.4609375 C89.4296875,96.7421889 89.5286448,96.9739574 89.7265625,97.15625 C89.9244802,97.3385426 90.1953108,97.4296875 90.5390625,97.4296875 Z M98.1640625,90.546875 L98.234375,91.5234375 C98.8385447,90.7682254 99.6484324,90.390625 100.664062,90.390625 C101.5599,90.390625 102.22656,90.6536432 102.664062,91.1796875 C103.101565,91.7057318 103.325521,92.4921823 103.335938,93.5390625 L103.335938,99 L101.078125,99 L101.078125,93.59375 C101.078125,93.1145809 100.973959,92.7669282 100.765625,92.5507812 C100.557291,92.3346343 100.21094,92.2265625 99.7265625,92.2265625 C99.0911427,92.2265625 98.6145849,92.4973931 98.296875,93.0390625 L98.296875,99 L96.0390625,99 L96.0390625,90.546875 L98.1640625,90.546875 Z M109.945312,99 C109.841145,98.796874 109.765625,98.5442723 109.71875,98.2421875 C109.171872,98.8515655 108.460942,99.15625 107.585938,99.15625 C106.757808,99.15625 106.071617,98.9166691 105.527344,98.4375 C104.98307,97.9583309 104.710938,97.3541703 104.710938,96.625 C104.710938,95.7291622 105.042965,95.0416691 105.707031,94.5625 C106.371097,94.0833309 107.330723,93.8411459 108.585938,93.8359375 L109.625,93.8359375 L109.625,93.3515625 C109.625,92.9609355 109.524741,92.6484387 109.324219,92.4140625 C109.123697,92.1796863 108.807294,92.0625 108.375,92.0625 C107.99479,92.0625 107.696616,92.1536449 107.480469,92.3359375 C107.264322,92.5182301 107.15625,92.7682276 107.15625,93.0859375 L104.898438,93.0859375 C104.898438,92.5963517 105.049478,92.1432312 105.351562,91.7265625 C105.653647,91.3098938 106.080726,90.9830741 106.632812,90.7460938 C107.184899,90.5091134 107.804684,90.390625 108.492188,90.390625 C109.533859,90.390625 110.360674,90.6523411 110.972656,91.1757812 C111.584638,91.6992214 111.890625,92.4348911 111.890625,93.3828125 L111.890625,97.046875 C111.895833,97.8489623 112.007811,98.4557271 112.226562,98.8671875 L112.226562,99 L109.945312,99 Z M108.078125,97.4296875 C108.41146,97.4296875 108.718749,97.3554695 109,97.2070312 C109.281251,97.058593 109.489583,96.8593762 109.625,96.609375 L109.625,95.15625 L108.78125,95.15625 C107.651036,95.15625 107.04948,95.5468711 106.976562,96.328125 L106.96875,96.4609375 C106.96875,96.7421889 107.067707,96.9739574 107.265625,97.15625 C107.463543,97.3385426 107.734373,97.4296875 108.078125,97.4296875 Z M113.296875,94.7109375 C113.296875,93.414056 113.605466,92.3697956 114.222656,91.578125 C114.839847,90.7864544 115.67187,90.390625 116.71875,90.390625 C117.645838,90.390625 118.367185,90.7083302 118.882812,91.34375 L118.976562,90.546875 L121.023438,90.546875 L121.023438,98.71875 C121.023438,99.458337 120.85547,100.10156 120.519531,100.648438 C120.183592,101.195315 119.710941,101.611978 119.101562,101.898438 C118.492184,102.184897 117.77865,102.328125 116.960938,102.328125 C116.341143,102.328125 115.736982,102.204428 115.148438,101.957031 C114.559893,101.709634 114.114585,101.390627 113.8125,101 L114.8125,99.625 C115.375003,100.255211 116.057288,100.570312 116.859375,100.570312 C117.458336,100.570312 117.924477,100.410158 118.257812,100.089844 C118.591148,99.7695296 118.757812,99.3151071 118.757812,98.7265625 L118.757812,98.2734375 C118.236977,98.8619821 117.552088,99.15625 116.703125,99.15625 C115.687495,99.15625 114.865889,98.7591186 114.238281,97.9648438 C113.610674,97.1705689 113.296875,96.1171941 113.296875,94.8046875 L113.296875,94.7109375 Z M115.554688,94.875 C115.554688,95.6406288 115.708332,96.2408832 116.015625,96.6757812 C116.322918,97.1106793 116.744789,97.328125 117.28125,97.328125 C117.968753,97.328125 118.460936,97.0703151 118.757812,96.5546875 L118.757812,93 C118.455728,92.4843724 117.968753,92.2265625 117.296875,92.2265625 C116.755206,92.2265625 116.329429,92.4479145 116.019531,92.890625 C115.709634,93.3333355 115.554688,93.9947873 115.554688,94.875 Z M126.648438,99.15625 C125.408848,99.15625 124.399743,98.7760455 123.621094,98.015625 C122.842444,97.2552045 122.453125,96.2421938 122.453125,94.9765625 L122.453125,94.7578125 C122.453125,93.9088499 122.617186,93.1497429 122.945312,92.4804688 C123.273439,91.8111946 123.738278,91.2955747 124.339844,90.9335938 C124.941409,90.5716128 125.6276,90.390625 126.398438,90.390625 C127.554693,90.390625 128.46484,90.7552047 129.128906,91.484375 C129.792972,92.2135453 130.125,93.2473891 130.125,94.5859375 L130.125,95.5078125 L124.742188,95.5078125 C124.815105,96.0598986 125.035154,96.5026025 125.402344,96.8359375 C125.769533,97.1692725 126.234372,97.3359375 126.796875,97.3359375 C127.666671,97.3359375 128.346352,97.0208365 128.835938,96.390625 L129.945312,97.6328125 C129.606769,98.1119816 129.14844,98.4856757 128.570312,98.7539062 C127.992185,99.0221368 127.351566,99.15625 126.648438,99.15625 Z M126.390625,92.21875 C125.942706,92.21875 125.579428,92.3697902 125.300781,92.671875 C125.022134,92.9739598 124.84375,93.4062472 124.765625,93.96875 L127.90625,93.96875 L127.90625,93.7890625 C127.895833,93.28906 127.760418,92.9023451 127.5,92.6289062 C127.239582,92.3554674 126.869794,92.21875 126.390625,92.21875 Z M136.15625,92.6640625 C135.848957,92.6223956 135.578126,92.6015625 135.34375,92.6015625 C134.489579,92.6015625 133.929689,92.8906221 133.664062,93.46875 L133.664062,99 L131.40625,99 L131.40625,90.546875 L133.539062,90.546875 L133.601562,91.5546875 C134.05469,90.778642 134.682288,90.390625 135.484375,90.390625 C135.734376,90.390625 135.968749,90.4244788 136.1875,90.4921875 L136.15625,92.6640625 Z" id="CloudKarafka-Manager" fill="#FFFFFF"></path>
            </g>
            <path d="M283.30075,137.542977 C283.613248,137.542977 283.828092,137.689461 283.945279,137.982429 C284.062466,138.275397 284.023404,138.519537 283.828092,138.714849 L277.968731,144.515617 C277.851544,144.671867 277.695294,144.749991 277.499982,144.749991 C277.30467,144.749991 277.14842,144.671867 277.031233,144.515617 L271.171872,138.714849 C270.97656,138.519537 270.937498,138.275397 271.054685,137.982429 C271.171872,137.689461 271.386716,137.542977 271.699215,137.542977 L275.859361,137.542977 L275.859361,121.957077 L271.699215,121.957077 C271.386716,121.957077 271.171872,121.810593 271.054685,121.517625 C270.937498,121.224657 270.97656,120.980516 271.171872,120.785204 L277.031233,114.984437 C277.14842,114.828187 277.30467,114.750063 277.499982,114.750063 C277.695294,114.750063 277.851544,114.828187 277.968731,114.984437 L283.828092,120.785204 C284.023404,120.980516 284.062466,121.224657 283.945279,121.517625 C283.828092,121.810593 283.613248,121.957077 283.30075,121.957077 L279.140603,121.957077 L279.140603,137.542977 L283.30075,137.542977 Z" id="item-arrows" fill="#3680CA" fill-rule="nonzero"></path>
            <path d="M137.30075,137.542977 C137.613248,137.542977 137.828092,137.689461 137.945279,137.982429 C138.062466,138.275397 138.023404,138.519537 137.828092,138.714849 L131.968731,144.515617 C131.851544,144.671867 131.695294,144.749991 131.499982,144.749991 C131.30467,144.749991 131.14842,144.671867 131.031233,144.515617 L125.171872,138.714849 C124.97656,138.519537 124.937498,138.275397 125.054685,137.982429 C125.171872,137.689461 125.386716,137.542977 125.699215,137.542977 L129.859361,137.542977 L129.859361,121.957077 L125.699215,121.957077 C125.386716,121.957077 125.171872,121.810593 125.054685,121.517625 C124.937498,121.224657 124.97656,120.980516 125.171872,120.785204 L131.031233,114.984437 C131.14842,114.828187 131.30467,114.750063 131.499982,114.750063 C131.695294,114.750063 131.851544,114.828187 131.968731,114.984437 L137.828092,120.785204 C138.023404,120.980516 138.062466,121.224657 137.945279,121.517625 C137.828092,121.810593 137.613248,121.957077 137.30075,121.957077 L133.140603,121.957077 L133.140603,137.542977 L137.30075,137.542977 Z" id="item-arrows" fill="#3680CA" fill-rule="nonzero"></path>
            <g id="apache-kafka" transform="translate(235.000000, 54.000000)" fill-rule="nonzero">
                <rect id="Rectangle-9-Copy" fill="#002952" x="0" y="0" width="168" height="50" rx="4"></rect>
                <path d="M56,27.65625 L51.890625,27.65625 L51.109375,30 L48.6171875,30 L52.8515625,18.625 L55.0234375,18.625 L59.28125,30 L56.7890625,30 L56,27.65625 Z M52.5234375,25.7578125 L55.3671875,25.7578125 L53.9375,21.5 L52.5234375,25.7578125 Z M67.8046875,25.8515625 C67.8046875,27.1536523 67.5091175,28.1966107 66.9179688,28.9804687 C66.32682,29.7643268 65.5286509,30.15625 64.5234375,30.15625 C63.6692666,30.15625 62.9791693,29.859378 62.453125,29.265625 L62.453125,33.25 L60.1953125,33.25 L60.1953125,21.546875 L62.2890625,21.546875 L62.3671875,22.375 C62.9140652,21.7187467 63.6275998,21.390625 64.5078125,21.390625 C65.5494844,21.390625 66.3593721,21.7760378 66.9375,22.546875 C67.5156279,23.3177122 67.8046875,24.3802016 67.8046875,25.734375 L67.8046875,25.8515625 Z M65.546875,25.6875 C65.546875,24.9010377 65.4075535,24.294273 65.1289062,23.8671875 C64.850259,23.440102 64.4453152,23.2265625 63.9140625,23.2265625 C63.2057256,23.2265625 62.7187513,23.4973931 62.453125,24.0390625 L62.453125,27.5 C62.729168,28.0572945 63.2213506,28.3359375 63.9296875,28.3359375 C65.0078179,28.3359375 65.546875,27.4531338 65.546875,25.6875 Z M74.1015625,30 C73.9973953,29.796874 73.9218752,29.5442723 73.875,29.2421875 C73.3281223,29.8515655 72.6171919,30.15625 71.7421875,30.15625 C70.9140584,30.15625 70.2278673,29.9166691 69.6835938,29.4375 C69.1393202,28.9583309 68.8671875,28.3541703 68.8671875,27.625 C68.8671875,26.7291622 69.1992154,26.0416691 69.8632812,25.5625 C70.5273471,25.0833309 71.4869729,24.8411459 72.7421875,24.8359375 L73.78125,24.8359375 L73.78125,24.3515625 C73.78125,23.9609355 73.6809906,23.6484387 73.4804688,23.4140625 C73.2799469,23.1796863 72.9635438,23.0625 72.53125,23.0625 C72.1510398,23.0625 71.8528657,23.1536449 71.6367188,23.3359375 C71.4205718,23.5182301 71.3125,23.7682276 71.3125,24.0859375 L69.0546875,24.0859375 C69.0546875,23.5963517 69.2057277,23.1432312 69.5078125,22.7265625 C69.8098973,22.3098937 70.2369764,21.9830741 70.7890625,21.7460937 C71.3411486,21.5091134 71.9609341,21.390625 72.6484375,21.390625 C73.6901094,21.390625 74.516924,21.6523411 75.1289062,22.1757812 C75.7408885,22.6992214 76.046875,23.4348911 76.046875,24.3828125 L76.046875,28.046875 C76.0520834,28.8489623 76.1640614,29.4557271 76.3828125,29.8671875 L76.3828125,30 L74.1015625,30 Z M72.234375,28.4296875 C72.56771,28.4296875 72.8749986,28.3554695 73.15625,28.2070312 C73.4375014,28.058593 73.6458327,27.8593762 73.78125,27.609375 L73.78125,26.15625 L72.9375,26.15625 C71.807286,26.15625 71.2057295,26.5468711 71.1328125,27.328125 L71.125,27.4609375 C71.125,27.7421889 71.2239573,27.9739574 71.421875,28.15625 C71.6197927,28.3385426 71.8906233,28.4296875 72.234375,28.4296875 Z M81.296875,28.3359375 C81.7135437,28.3359375 82.052082,28.2213553 82.3125,27.9921875 C82.572918,27.7630197 82.7083333,27.4583352 82.71875,27.078125 L84.8359375,27.078125 C84.8307291,27.6510445 84.6744807,28.1757789 84.3671875,28.6523437 C84.0598943,29.1289086 83.6393256,29.4986966 83.1054688,29.7617187 C82.5716119,30.0247409 81.9817741,30.15625 81.3359375,30.15625 C80.1275981,30.15625 79.1744827,29.7721393 78.4765625,29.0039062 C77.7786423,28.2356732 77.4296875,27.1744859 77.4296875,25.8203125 L77.4296875,25.671875 C77.4296875,24.3697852 77.7760382,23.330733 78.46875,22.5546875 C79.1614618,21.778642 80.1119731,21.390625 81.3203125,21.390625 C82.3776095,21.390625 83.2252572,21.6914032 83.8632812,22.2929687 C84.5013053,22.8945343 84.8255208,23.6953075 84.8359375,24.6953125 L82.71875,24.6953125 C82.7083333,24.2578103 82.572918,23.9023451 82.3125,23.6289062 C82.052082,23.3554674 81.7083355,23.21875 81.28125,23.21875 C80.7552057,23.21875 80.3580743,23.4101543 80.0898438,23.7929687 C79.8216132,24.1757832 79.6875,24.7968707 79.6875,25.65625 L79.6875,25.890625 C79.6875,26.760421 79.8203112,27.3854148 80.0859375,27.765625 C80.3515638,28.1458352 80.7552056,28.3359375 81.296875,28.3359375 Z M88.328125,22.46875 C88.9270863,21.7499964 89.679683,21.390625 90.5859375,21.390625 C92.41928,21.390625 93.3489582,22.4557185 93.375,24.5859375 L93.375,30 L91.1171875,30 L91.1171875,24.6484375 C91.1171875,24.1640601 91.0130219,23.8059907 90.8046875,23.5742187 C90.5963531,23.3424468 90.2500024,23.2265625 89.765625,23.2265625 C89.1041634,23.2265625 88.6250015,23.4817683 88.328125,23.9921875 L88.328125,30 L86.0703125,30 L86.0703125,18 L88.328125,18 L88.328125,22.46875 Z M98.96875,30.15625 C97.7291605,30.15625 96.720056,29.7760455 95.9414062,29.015625 C95.1627565,28.2552045 94.7734375,27.2421938 94.7734375,25.9765625 L94.7734375,25.7578125 C94.7734375,24.9088499 94.9374984,24.1497429 95.265625,23.4804687 C95.5937516,22.8111946 96.0585907,22.2955747 96.6601562,21.9335937 C97.2617218,21.5716128 97.9479128,21.390625 98.71875,21.390625 C99.8750058,21.390625 100.785153,21.7552047 101.449219,22.484375 C102.113285,23.2135453 102.445312,24.2473891 102.445312,25.5859375 L102.445312,26.5078125 L97.0625,26.5078125 C97.135417,27.0598986 97.3554669,27.5026025 97.7226562,27.8359375 C98.0898456,28.1692725 98.5546847,28.3359375 99.1171875,28.3359375 C99.9869835,28.3359375 100.666664,28.0208365 101.15625,27.390625 L102.265625,28.6328125 C101.927082,29.1119816 101.468753,29.4856757 100.890625,29.7539062 C100.312497,30.0221368 99.6718785,30.15625 98.96875,30.15625 Z M98.7109375,23.21875 C98.2630186,23.21875 97.899741,23.3697902 97.6210938,23.671875 C97.3424465,23.9739598 97.1640629,24.4062472 97.0859375,24.96875 L100.226562,24.96875 L100.226562,24.7890625 C100.216146,24.28906 100.08073,23.9023451 99.8203125,23.6289062 C99.5598945,23.3554674 99.1901066,23.21875 98.7109375,23.21875 Z M111.421875,25.4375 L110.203125,26.75 L110.203125,30 L107.859375,30 L107.859375,18.625 L110.203125,18.625 L110.203125,23.78125 L111.234375,22.3671875 L114.132812,18.625 L117.015625,18.625 L112.976562,23.6796875 L117.132812,30 L114.34375,30 L111.421875,25.4375 Z M122.765625,30 C122.661458,29.796874 122.585938,29.5442723 122.539062,29.2421875 C121.992185,29.8515655 121.281254,30.15625 120.40625,30.15625 C119.578121,30.15625 118.89193,29.9166691 118.347656,29.4375 C117.803383,28.9583309 117.53125,28.3541703 117.53125,27.625 C117.53125,26.7291622 117.863278,26.0416691 118.527344,25.5625 C119.19141,25.0833309 120.151035,24.8411459 121.40625,24.8359375 L122.445312,24.8359375 L122.445312,24.3515625 C122.445312,23.9609355 122.345053,23.6484387 122.144531,23.4140625 C121.944009,23.1796863 121.627606,23.0625 121.195312,23.0625 C120.815102,23.0625 120.516928,23.1536449 120.300781,23.3359375 C120.084634,23.5182301 119.976562,23.7682276 119.976562,24.0859375 L117.71875,24.0859375 C117.71875,23.5963517 117.86979,23.1432312 118.171875,22.7265625 C118.47396,22.3098937 118.901039,21.9830741 119.453125,21.7460937 C120.005211,21.5091134 120.624997,21.390625 121.3125,21.390625 C122.354172,21.390625 123.180987,21.6523411 123.792969,22.1757812 C124.404951,22.6992214 124.710938,23.4348911 124.710938,24.3828125 L124.710938,28.046875 C124.716146,28.8489623 124.828124,29.4557271 125.046875,29.8671875 L125.046875,30 L122.765625,30 Z M120.898438,28.4296875 C121.231773,28.4296875 121.539061,28.3554695 121.820312,28.2070312 C122.101564,28.058593 122.309895,27.8593762 122.445312,27.609375 L122.445312,26.15625 L121.601562,26.15625 C120.471349,26.15625 119.869792,26.5468711 119.796875,27.328125 L119.789062,27.4609375 C119.789062,27.7421889 119.88802,27.9739574 120.085938,28.15625 C120.283855,28.3385426 120.554686,28.4296875 120.898438,28.4296875 Z M127.0625,30 L127.0625,23.203125 L125.804688,23.203125 L125.804688,21.546875 L127.0625,21.546875 L127.0625,20.828125 C127.0625,19.8802036 127.334633,19.1445339 127.878906,18.6210937 C128.42318,18.0976536 129.184891,17.8359375 130.164062,17.8359375 C130.476564,17.8359375 130.859373,17.8880203 131.3125,17.9921875 L131.289062,19.7421875 C131.101562,19.6953123 130.872397,19.671875 130.601562,19.671875 C129.7526,19.671875 129.328125,20.0703085 129.328125,20.8671875 L129.328125,21.546875 L131.007812,21.546875 L131.007812,23.203125 L129.328125,23.203125 L129.328125,30 L127.0625,30 Z M135.25,26.609375 L134.4375,27.421875 L134.4375,30 L132.179688,30 L132.179688,18 L134.4375,18 L134.4375,24.6484375 L134.875,24.0859375 L137.039062,21.546875 L139.75,21.546875 L136.695312,25.0703125 L140.015625,30 L137.421875,30 L135.25,26.609375 Z M145.625,30 C145.520833,29.796874 145.445313,29.5442723 145.398438,29.2421875 C144.85156,29.8515655 144.140629,30.15625 143.265625,30.15625 C142.437496,30.15625 141.751305,29.9166691 141.207031,29.4375 C140.662758,28.9583309 140.390625,28.3541703 140.390625,27.625 C140.390625,26.7291622 140.722653,26.0416691 141.386719,25.5625 C142.050785,25.0833309 143.01041,24.8411459 144.265625,24.8359375 L145.304688,24.8359375 L145.304688,24.3515625 C145.304688,23.9609355 145.204428,23.6484387 145.003906,23.4140625 C144.803384,23.1796863 144.486981,23.0625 144.054688,23.0625 C143.674477,23.0625 143.376303,23.1536449 143.160156,23.3359375 C142.944009,23.5182301 142.835938,23.7682276 142.835938,24.0859375 L140.578125,24.0859375 C140.578125,23.5963517 140.729165,23.1432312 141.03125,22.7265625 C141.333335,22.3098937 141.760414,21.9830741 142.3125,21.7460937 C142.864586,21.5091134 143.484372,21.390625 144.171875,21.390625 C145.213547,21.390625 146.040362,21.6523411 146.652344,22.1757812 C147.264326,22.6992214 147.570312,23.4348911 147.570312,24.3828125 L147.570312,28.046875 C147.575521,28.8489623 147.687499,29.4557271 147.90625,29.8671875 L147.90625,30 L145.625,30 Z M143.757812,28.4296875 C144.091147,28.4296875 144.398436,28.3554695 144.679688,28.2070312 C144.960939,28.058593 145.16927,27.8593762 145.304688,27.609375 L145.304688,26.15625 L144.460938,26.15625 C143.330724,26.15625 142.729167,26.5468711 142.65625,27.328125 L142.648438,27.4609375 C142.648438,27.7421889 142.747395,27.9739574 142.945312,28.15625 C143.14323,28.3385426 143.414061,28.4296875 143.757812,28.4296875 Z" id="Apache-Kafka" fill="#FFFFFF"></path>
                <g id="apache_kafka-icon" transform="translate(18.000000, 11.000000)" fill="#FFFFFF">
                    <path d="M13.7095303,15.6388271 C12.6100019,15.6388271 11.6242573,16.1259611 10.9492288,16.8929033 L9.21950545,15.6683776 C9.40312265,15.1628343 9.50855161,14.6199967 9.50855161,14.0518209 C9.50855161,13.4934952 9.40679086,12.9597607 9.22921954,12.4616894 L10.9550706,11.2501385 C11.6300317,12.0132084 12.6131945,12.4976933 13.7095303,12.4976933 C15.7389643,12.4976933 17.3902954,10.8466273 17.3902954,8.81691388 C17.3902954,6.78720053 15.7389643,5.13613502 13.7095303,5.13613502 C11.6800968,5.13613502 10.0287657,6.78720053 10.0287657,8.81691388 C10.0287657,9.1802094 10.0836541,9.53053008 10.1821536,9.86230556 L8.45514798,11.0744686 C7.73372259,10.1794761 6.69499181,9.55457763 5.51150097,9.36382731 L5.51150097,7.28241859 C7.17879526,6.93223336 8.43504022,5.45085985 8.43504022,3.68077904 C8.43504022,1.65106551 6.78370976,0 4.75427587,0 C2.72484193,0 1.07351111,1.65106551 1.07351111,3.68077904 C1.07351111,5.42715186 2.2972173,6.89025218 3.93115787,7.26543543 L3.93115787,9.37388093 C1.70126002,9.76530034 0,11.7113903 0,14.0518209 C0,16.4036637 1.71810684,18.3568866 3.96410432,18.7349911 L3.96410432,20.9613653 C2.31345279,21.3241852 1.07351111,22.7962526 1.07351111,24.5545135 C1.07351111,26.5842269 2.72484193,28.2352923 4.75427587,28.2352923 C6.78370976,28.2352923 8.43504022,26.5842269 8.43504022,24.5545135 C8.43504022,22.7962526 7.19509877,21.3241852 5.54444742,20.9613653 L5.54444742,18.7349237 C6.70463789,18.5395535 7.72427998,17.9270188 8.43830092,17.0518621 L10.1795725,18.2843365 C10.0829065,18.6131227 10.0287657,18.9599792 10.0287657,19.3196065 C10.0287657,21.3493199 11.6800968,23.0003853 13.7095303,23.0003853 C15.7389643,23.0003853 17.3902954,21.3493199 17.3902954,19.3196065 C17.3902954,17.2898931 15.7389643,15.6388271 13.7095303,15.6388271 Z M13.7095303,7.03229583 C14.6936447,7.03229583 15.494074,7.83306768 15.494074,8.81691388 C15.494074,9.80076009 14.6936447,10.6014639 13.7095303,10.6014639 C12.7254164,10.6014639 11.9249872,9.80076009 11.9249872,8.81691388 C11.9249872,7.83306768 12.7254164,7.03229583 13.7095303,7.03229583 Z M2.96966468,3.68077904 C2.96966468,2.69693283 3.77016177,1.89622888 4.75427587,1.89622888 C5.73839015,1.89622888 6.53881881,2.69693283 6.53881881,3.68077904 C6.53881881,4.66462524 5.73839015,5.46532913 4.75427587,5.46532913 C3.77016177,5.46532913 2.96966468,4.66462524 2.96966468,3.68077904 Z M6.53881881,24.5545135 C6.53881881,25.5383597 5.73839015,26.3390635 4.75427587,26.3390635 C3.77016177,26.3390635 2.96966468,25.5383597 2.96966468,24.5545135 C2.96966468,23.5706673 3.77016177,22.7699628 4.75427587,22.7699628 C5.73839015,22.7699628 6.53881881,23.5706673 6.53881881,24.5545135 Z M4.75414001,16.5406805 C3.38159731,16.5406805 2.26501809,15.4243007 2.26501809,14.0518209 C2.26501809,12.679273 3.38159731,11.5626892 4.75414001,11.5626892 C6.12661476,11.5626892 7.24319368,12.679273 7.24319368,14.0518209 C7.24319368,15.4243007 6.12661476,16.5406805 4.75414001,16.5406805 Z M13.7095303,21.1042245 C12.7254164,21.1042245 11.9249872,20.3034527 11.9249872,19.3196065 C11.9249872,18.3357603 12.7254164,17.5350564 13.7095303,17.5350564 C14.6936447,17.5350564 15.494074,18.3357603 15.494074,19.3196065 C15.494074,20.3034527 14.6936447,21.1042245 13.7095303,21.1042245 Z" id="path6"></path>
                </g>
            </g>
            <path d="M216.765554,78.2812779 C216.921804,78.3984652 216.999928,78.5547151 216.999928,78.7500268 C216.999928,78.9453386 216.921804,79.1015885 216.765554,79.2187757 L210.964787,85.0781367 C210.769475,85.2734485 210.525335,85.3125112 210.232366,85.195324 C209.939398,85.0781367 209.792914,84.8632932 209.792914,84.5507942 L209.792914,80.3906479 L194.207014,80.3906479 L194.207014,84.5507942 C194.207014,84.8632932 194.06053,85.0781367 193.767562,85.195324 C193.474594,85.3125112 193.230454,85.2734485 193.035142,85.0781367 L187.234374,79.2187757 C187.078125,79.1015885 187,78.9453386 187,78.7500268 C187,78.5547151 187.078125,78.3984652 187.234374,78.2812779 L193.035142,72.4219169 C193.230454,72.2266052 193.474594,72.1875425 193.767562,72.3047297 C194.06053,72.4219169 194.207014,72.6367604 194.207014,72.9492594 L194.207014,77.1094057 L209.792914,77.1094057 L209.792914,72.9492594 C209.792914,72.6367604 209.939398,72.4219169 210.232366,72.3047297 C210.525335,72.1875425 210.769475,72.2266052 210.964787,72.4219169 L216.765554,78.2812779 Z" id="item-arrows" fill="#3680CA" fill-rule="nonzero"></path>
            <g id="zookeeper" transform="translate(0.000000, 54.000000)" fill-rule="nonzero">
                <rect id="Rectangle-9-Copy-2" fill="#002952" x="0" y="0" width="168" height="50" rx="4"></rect>
                <path d="M63.1328125,28.1171875 L68.8671875,28.1171875 L68.8671875,30 L60.203125,30 L60.203125,28.625 L65.828125,20.5234375 L60.2109375,20.5234375 L60.2109375,18.625 L68.7421875,18.625 L68.7421875,19.96875 L63.1328125,28.1171875 Z M69.84375,25.6953125 C69.84375,24.8567666 70.0052067,24.1093783 70.328125,23.453125 C70.6510433,22.7968717 71.1158824,22.2890643 71.7226562,21.9296875 C72.3294301,21.5703107 73.0338502,21.390625 73.8359375,21.390625 C74.9765682,21.390625 75.9075485,21.7395798 76.6289062,22.4375 C77.350264,23.1354202 77.7526037,24.0833273 77.8359375,25.28125 L77.8515625,25.859375 C77.8515625,27.1562565 77.489587,28.1966107 76.765625,28.9804687 C76.041663,29.7643268 75.0703186,30.15625 73.8515625,30.15625 C72.6328064,30.15625 71.6601599,29.7656289 70.9335938,28.984375 C70.2070276,28.2031211 69.84375,27.1406317 69.84375,25.796875 L69.84375,25.6953125 Z M72.1015625,25.859375 C72.1015625,26.6614623 72.2526027,27.2747375 72.5546875,27.6992187 C72.8567723,28.1237 73.2890597,28.3359375 73.8515625,28.3359375 C74.3984402,28.3359375 74.8255193,28.1263042 75.1328125,27.7070312 C75.4401057,27.2877583 75.59375,26.6171921 75.59375,25.6953125 C75.59375,24.9088502 75.4401057,24.2994813 75.1328125,23.8671875 C74.8255193,23.4348937 74.393232,23.21875 73.8359375,23.21875 C73.2838514,23.21875 72.8567723,23.4335916 72.5546875,23.8632812 C72.2526027,24.2929709 72.1015625,24.9583288 72.1015625,25.859375 Z M78.890625,25.6953125 C78.890625,24.8567666 79.0520817,24.1093783 79.375,23.453125 C79.6979183,22.7968717 80.1627574,22.2890643 80.7695312,21.9296875 C81.3763051,21.5703107 82.0807252,21.390625 82.8828125,21.390625 C84.0234432,21.390625 84.9544235,21.7395798 85.6757812,22.4375 C86.397139,23.1354202 86.7994787,24.0833273 86.8828125,25.28125 L86.8984375,25.859375 C86.8984375,27.1562565 86.536462,28.1966107 85.8125,28.9804687 C85.088538,29.7643268 84.1171936,30.15625 82.8984375,30.15625 C81.6796814,30.15625 80.7070349,29.7656289 79.9804688,28.984375 C79.2539026,28.2031211 78.890625,27.1406317 78.890625,25.796875 L78.890625,25.6953125 Z M81.1484375,25.859375 C81.1484375,26.6614623 81.2994777,27.2747375 81.6015625,27.6992187 C81.9036473,28.1237 82.3359347,28.3359375 82.8984375,28.3359375 C83.4453152,28.3359375 83.8723943,28.1263042 84.1796875,27.7070312 C84.4869807,27.2877583 84.640625,26.6171921 84.640625,25.6953125 C84.640625,24.9088502 84.4869807,24.2994813 84.1796875,23.8671875 C83.8723943,23.4348937 83.440107,23.21875 82.8828125,23.21875 C82.3307264,23.21875 81.9036473,23.4335916 81.6015625,23.8632812 C81.2994777,24.2929709 81.1484375,24.9583288 81.1484375,25.859375 Z M92,25.4375 L90.78125,26.75 L90.78125,30 L88.4375,30 L88.4375,18.625 L90.78125,18.625 L90.78125,23.78125 L91.8125,22.3671875 L94.7109375,18.625 L97.59375,18.625 L93.5546875,23.6796875 L97.7109375,30 L94.921875,30 L92,25.4375 Z M102.335938,30.15625 C101.096348,30.15625 100.087243,29.7760455 99.3085938,29.015625 C98.529944,28.2552045 98.140625,27.2421938 98.140625,25.9765625 L98.140625,25.7578125 C98.140625,24.9088499 98.3046859,24.1497429 98.6328125,23.4804687 C98.9609391,22.8111946 99.4257782,22.2955747 100.027344,21.9335937 C100.628909,21.5716128 101.3151,21.390625 102.085938,21.390625 C103.242193,21.390625 104.15234,21.7552047 104.816406,22.484375 C105.480472,23.2135453 105.8125,24.2473891 105.8125,25.5859375 L105.8125,26.5078125 L100.429688,26.5078125 C100.502605,27.0598986 100.722654,27.5026025 101.089844,27.8359375 C101.457033,28.1692725 101.921872,28.3359375 102.484375,28.3359375 C103.354171,28.3359375 104.033852,28.0208365 104.523438,27.390625 L105.632812,28.6328125 C105.294269,29.1119816 104.83594,29.4856757 104.257812,29.7539062 C103.679685,30.0221368 103.039066,30.15625 102.335938,30.15625 Z M102.078125,23.21875 C101.630206,23.21875 101.266928,23.3697902 100.988281,23.671875 C100.709634,23.9739598 100.53125,24.4062472 100.453125,24.96875 L103.59375,24.96875 L103.59375,24.7890625 C103.583333,24.28906 103.447918,23.9023451 103.1875,23.6289062 C102.927082,23.3554674 102.557294,23.21875 102.078125,23.21875 Z M110.984375,30.15625 C109.744785,30.15625 108.735681,29.7760455 107.957031,29.015625 C107.178382,28.2552045 106.789062,27.2421938 106.789062,25.9765625 L106.789062,25.7578125 C106.789062,24.9088499 106.953123,24.1497429 107.28125,23.4804687 C107.609377,22.8111946 108.074216,22.2955747 108.675781,21.9335937 C109.277347,21.5716128 109.963538,21.390625 110.734375,21.390625 C111.890631,21.390625 112.800778,21.7552047 113.464844,22.484375 C114.12891,23.2135453 114.460938,24.2473891 114.460938,25.5859375 L114.460938,26.5078125 L109.078125,26.5078125 C109.151042,27.0598986 109.371092,27.5026025 109.738281,27.8359375 C110.105471,28.1692725 110.57031,28.3359375 111.132812,28.3359375 C112.002609,28.3359375 112.682289,28.0208365 113.171875,27.390625 L114.28125,28.6328125 C113.942707,29.1119816 113.484378,29.4856757 112.90625,29.7539062 C112.328122,30.0221368 111.687504,30.15625 110.984375,30.15625 Z M110.726562,23.21875 C110.278644,23.21875 109.915366,23.3697902 109.636719,23.671875 C109.358072,23.9739598 109.179688,24.4062472 109.101562,24.96875 L112.242188,24.96875 L112.242188,24.7890625 C112.231771,24.28906 112.096355,23.9023451 111.835938,23.6289062 C111.57552,23.3554674 111.205732,23.21875 110.726562,23.21875 Z M123.351562,25.8515625 C123.351562,27.1536523 123.055993,28.1966107 122.464844,28.9804687 C121.873695,29.7643268 121.075526,30.15625 120.070312,30.15625 C119.216142,30.15625 118.526044,29.859378 118,29.265625 L118,33.25 L115.742188,33.25 L115.742188,21.546875 L117.835938,21.546875 L117.914062,22.375 C118.46094,21.7187467 119.174475,21.390625 120.054688,21.390625 C121.096359,21.390625 121.906247,21.7760378 122.484375,22.546875 C123.062503,23.3177122 123.351562,24.3802016 123.351562,25.734375 L123.351562,25.8515625 Z M121.09375,25.6875 C121.09375,24.9010377 120.954428,24.294273 120.675781,23.8671875 C120.397134,23.440102 119.99219,23.2265625 119.460938,23.2265625 C118.752601,23.2265625 118.265626,23.4973931 118,24.0390625 L118,27.5 C118.276043,28.0572945 118.768226,28.3359375 119.476562,28.3359375 C120.554693,28.3359375 121.09375,27.4531338 121.09375,25.6875 Z M128.640625,30.15625 C127.401035,30.15625 126.391931,29.7760455 125.613281,29.015625 C124.834632,28.2552045 124.445312,27.2421938 124.445312,25.9765625 L124.445312,25.7578125 C124.445312,24.9088499 124.609373,24.1497429 124.9375,23.4804687 C125.265627,22.8111946 125.730466,22.2955747 126.332031,21.9335937 C126.933597,21.5716128 127.619788,21.390625 128.390625,21.390625 C129.546881,21.390625 130.457028,21.7552047 131.121094,22.484375 C131.78516,23.2135453 132.117188,24.2473891 132.117188,25.5859375 L132.117188,26.5078125 L126.734375,26.5078125 C126.807292,27.0598986 127.027342,27.5026025 127.394531,27.8359375 C127.761721,28.1692725 128.22656,28.3359375 128.789062,28.3359375 C129.658859,28.3359375 130.338539,28.0208365 130.828125,27.390625 L131.9375,28.6328125 C131.598957,29.1119816 131.140628,29.4856757 130.5625,29.7539062 C129.984372,30.0221368 129.343754,30.15625 128.640625,30.15625 Z M128.382812,23.21875 C127.934894,23.21875 127.571616,23.3697902 127.292969,23.671875 C127.014322,23.9739598 126.835938,24.4062472 126.757812,24.96875 L129.898438,24.96875 L129.898438,24.7890625 C129.888021,24.28906 129.752605,23.9023451 129.492188,23.6289062 C129.23177,23.3554674 128.861982,23.21875 128.382812,23.21875 Z M138.148438,23.6640625 C137.841144,23.6223956 137.570314,23.6015625 137.335938,23.6015625 C136.481767,23.6015625 135.921876,23.8906221 135.65625,24.46875 L135.65625,30 L133.398438,30 L133.398438,21.546875 L135.53125,21.546875 L135.59375,22.5546875 C136.046877,21.778642 136.674475,21.390625 137.476562,21.390625 C137.726564,21.390625 137.960936,21.4244788 138.179688,21.4921875 L138.148438,23.6640625 Z" id="ZooKeeper" fill="#FFFFFF"></path>
                <g id="shovel-(1)" transform="translate(17.000000, 13.000000)" fill="#FFFFFF">
                    <path d="M23.7348837,3.67858605 L20.3015442,0.245246512 C20.1444837,0.0881860465 19.9316093,0 19.7094698,0 C19.4873302,0 19.2744558,0.0881860465 19.1173953,0.245246512 C17.9747721,1.38809302 17.5201116,2.91259535 17.8274233,4.15244651 L8.2676093,13.7122605 L6.53291163,11.9775628 C6.37596279,11.820614 6.16297674,11.7324279 5.94094884,11.7324279 C5.71892093,11.7324279 5.50593488,11.820614 5.34898605,11.9775628 L1.37793488,15.948614 C0.489376744,16.8372837 0,18.0187535 0,19.2753488 C0,20.5320558 0.489376744,21.7135256 1.37804651,22.6021953 C2.26660465,23.4907535 3.44807442,23.9801302 4.7047814,23.9801302 C5.96137674,23.9801302 7.14284651,23.4907535 8.03151628,22.6021953 L12.0025674,18.6312558 C12.1596279,18.4741953 12.247814,18.2613209 12.247814,18.0391814 C12.247814,17.8170419 12.1596279,17.6042791 12.0025674,17.447107 L10.2679814,15.7125209 L19.8246698,6.15583256 C20.0776186,6.22046512 20.3440744,6.25462326 20.6194605,6.25462326 C21.7147535,6.25462326 22.8503442,5.74716279 23.7348837,4.86273488 C23.8919442,4.70567442 23.9801302,4.4928 23.9801302,4.27066047 C23.9801302,4.04852093 23.8919442,3.83575814 23.7348837,3.67858605 Z M20.6194605,4.58020465 C20.3612651,4.58020465 19.9968,4.52349767 19.7267721,4.25335814 C19.2541395,3.78083721 19.3061581,2.89707907 19.7828093,2.09447442 L21.8859907,4.19776744 C21.4729674,4.44323721 21.030586,4.58020465 20.6194605,4.58020465 Z" id="Shape"></path>
                </g>
            </g>
            <g id="metrics-reporter" transform="translate(299.000000, 0.000000)" fill-rule="nonzero">
                <path d="M128.26041,33.2917863 C128.455722,33.0964746 128.699862,33.0574119 128.99283,33.1745991 C129.285798,33.2917863 129.432282,33.5066299 129.432282,33.8191288 L129.432282,42.1980151 C129.432282,42.3933268 129.363923,42.5593427 129.227205,42.6960608 C129.090486,42.8327789 128.924471,42.9011384 128.729159,42.9011384 L120.350273,42.9011384 C120.037774,42.9011384 119.82293,42.7546544 119.705743,42.4616863 C119.588556,42.1687183 119.627618,41.924578 119.82293,41.7292662 L123.045579,38.5066177 C121.951831,37.4519327 120.7116,36.6316221 119.324884,36.045686 C117.938169,35.4597499 116.463563,35.1667819 114.901067,35.1667819 C112.83076,35.1667819 110.916701,35.6843585 109.158893,36.7195125 C107.401085,37.7546666 106.004604,39.1511474 104.96945,40.9089557 C103.934296,42.666764 103.416719,44.5808222 103.416719,46.6511295 C103.416719,48.7214367 103.934296,50.635495 104.96945,52.3933033 C106.004604,54.1511116 107.401085,55.5475923 109.158893,56.5827464 C110.916701,57.6179005 112.83076,58.1354771 114.901067,58.1354771 C116.346376,58.1354771 117.723326,57.8815718 119.031916,57.3737602 C120.340507,56.8659486 121.502614,56.1432944 122.518236,55.2057966 C122.674486,55.0886094 122.850267,55.0397817 123.045579,55.0593126 C123.24089,55.0788435 123.39714,55.147203 123.514328,55.2643902 L124.6862,56.4362624 C124.803387,56.5534496 124.861981,56.7194646 124.861981,56.9343081 C124.861981,57.1491516 124.783856,57.3151666 124.627606,57.4323538 C123.338547,58.604226 121.854176,59.5221928 120.174492,60.1862535 C118.494808,60.8503141 116.737,61.1823448 114.901067,61.1823448 C112.283885,61.1823448 109.862016,60.5280492 107.635459,59.2194589 C105.408902,57.9108686 103.641328,56.1530603 102.332737,53.946034 C101.024147,51.7390077 100.369852,49.3171388 100.369852,46.6804263 C100.369852,44.0437138 101.024147,41.612079 102.332737,39.3855218 C103.641328,37.1589646 105.408902,35.3913904 107.635459,34.0828001 C109.862016,32.7742097 112.283885,32.1199141 114.901067,32.1199141 C116.854187,32.1199141 118.719417,32.4910067 120.496757,33.2331927 C122.274096,33.9753788 123.826827,35.0300637 125.154949,36.3972477 L128.26041,33.2917863 Z" id="item-sync" fill="#3680CA" transform="translate(114.901067, 46.651129) scale(-1, 1) rotate(18.000000) translate(-114.901067, -46.651129) "></path>
                <path d="M25.1601562,15.6484375 C25.6028668,15.6588542 25.99479,15.5299493 26.3359375,15.2617188 C26.677085,14.9934882 26.8945308,14.6432313 26.9882812,14.2109375 L28.7382812,14.203125 C28.6809893,14.7604195 28.4791684,15.2682269 28.1328125,15.7265625 C27.7864566,16.1848981 27.3424506,16.5416654 26.8007812,16.796875 C26.2591119,17.0520846 25.6940134,17.1718751 25.1054687,17.15625 C24.3815068,17.1458333 23.7643255,16.9583352 23.2539062,16.59375 C22.743487,16.2291648 22.3710949,15.7252636 22.1367187,15.0820312 C21.9023426,14.4387989 21.8242184,13.7213581 21.9023437,12.9296875 L21.9257812,12.65625 C22.0143234,11.8385376 22.2526022,11.0976596 22.640625,10.4335938 C23.0286478,9.76952793 23.5299448,9.2578143 24.1445312,8.8984375 C24.7591177,8.5390607 25.4414025,8.36979156 26.1914062,8.390625 C27.1080775,8.41145844 27.839841,8.71484082 28.3867187,9.30078125 C28.9335965,9.88672168 29.2070312,10.6484328 29.2070312,11.5859375 L27.4726562,11.5859375 C27.4726562,11.1015601 27.3541679,10.7057307 27.1171875,10.3984375 C26.8802071,10.0911443 26.5377627,9.92708344 26.0898437,9.90625 C25.3658818,9.88541656 24.795575,10.1927052 24.3789062,10.828125 C23.9622375,11.4635448 23.7382814,12.3593692 23.7070312,13.515625 C23.6705727,14.9166737 24.1549429,15.6276041 25.1601562,15.6484375 Z M31.6445312,17 L29.7929687,17 L31.8789062,5 L33.7304687,5 L31.6445312,17 Z M34.1601562,12.7421875 C34.2486984,11.9140584 34.4921855,11.1614617 34.890625,10.484375 C35.2890645,9.80728828 35.8007781,9.28385602 36.4257812,8.9140625 C37.0507844,8.54426898 37.7434858,8.36979156 38.5039062,8.390625 C39.2278682,8.40104172 39.852862,8.59374813 40.3789062,8.96875 C40.9049505,9.34375188 41.2890613,9.85676758 41.53125,10.5078125 C41.7734387,11.1588574 41.8580733,11.8828085 41.7851562,12.6796875 C41.7018225,13.5755253 41.4583354,14.3671841 41.0546875,15.0546875 C40.6510396,15.7421909 40.1354198,16.2695294 39.5078125,16.6367188 C38.8802052,17.0039081 38.1835976,17.1770834 37.4179687,17.15625 C36.6992152,17.1458333 36.0781276,16.9544289 35.5546875,16.5820312 C35.0312474,16.2096336 34.6471366,15.699222 34.4023437,15.0507812 C34.1575509,14.4023405 34.0690101,13.6875039 34.1367187,12.90625 L34.1601562,12.7421875 Z M35.9804687,13.8125 C36.0065105,14.3593777 36.1510404,14.7981754 36.4140625,15.1289062 C36.6770846,15.4596371 37.0429664,15.6328124 37.5117187,15.6484375 C38.1471386,15.6640626 38.6796854,15.4192734 39.109375,14.9140625 C39.5390646,14.4088516 39.8085932,13.7187544 39.9179687,12.84375 L39.9648437,12.078125 C39.9648437,11.411455 39.8320326,10.8880227 39.5664062,10.5078125 C39.3007799,10.1276023 38.9153671,9.92708344 38.4101562,9.90625 C37.6184856,9.88541656 36.9934919,10.2734335 36.5351562,11.0703125 C36.2591132,11.5546899 36.0846358,12.111976 36.0117187,12.7421875 C35.9700519,13.1796897 35.9596353,13.536457 35.9804687,13.8125 Z M47.8554687,16.1640625 C47.2148405,16.8463576 46.4127652,17.1770834 45.4492187,17.15625 C44.902341,17.1458333 44.4479185,17.010418 44.0859375,16.75 C43.7239565,16.489582 43.4661466,16.1263044 43.3125,15.6601562 C43.1588534,15.1940081 43.1132809,14.6458365 43.1757812,14.015625 L44.0898437,8.546875 L45.9414062,8.546875 L45.0195312,14.0390625 C44.9986978,14.2317718 44.9960937,14.4192699 45.0117187,14.6015625 C45.0638023,15.2473991 45.3893199,15.5833332 45.9882812,15.609375 C46.8059937,15.6406252 47.4674454,15.3125034 47.9726562,14.625 L49.0351562,8.546875 L50.8867187,8.546875 L49.4257812,17 L47.6914062,17 L47.8554687,16.1640625 Z M51.7382812,12.765625 C51.8424484,11.895829 52.0768211,11.1145868 52.4414062,10.421875 C52.8059914,9.7291632 53.2565077,9.21224129 53.7929687,8.87109375 C54.3294298,8.52994621 54.925778,8.36718742 55.5820312,8.3828125 C56.4414105,8.40364594 57.1132788,8.72395523 57.5976562,9.34375 L58.4101562,5 L60.2695312,5 L58.1835937,17 L56.5273437,17 L56.6523437,16.125 C55.9960905,16.8385452 55.2252648,17.1848959 54.3398437,17.1640625 C53.5533815,17.1536458 52.9244815,16.8502634 52.453125,16.2539062 C51.9817685,15.6575491 51.7278648,14.8645883 51.6914062,13.875 C51.6757812,13.5520817 51.6835936,13.2369807 51.7148437,12.9296875 L51.7382812,12.765625 Z M53.5351562,13.4921875 C53.4986977,14.1380241 53.5989571,14.6510398 53.8359375,15.03125 C54.0729179,15.4114602 54.4257789,15.6067708 54.8945312,15.6171875 C55.6080765,15.6380209 56.2252578,15.2916702 56.7460937,14.578125 L57.3789062,10.9453125 C57.1341134,10.2942676 56.6601598,9.95833344 55.9570312,9.9375 C55.2486944,9.91666656 54.6783876,10.2291634 54.2460937,10.875 C53.8137999,11.5208366 53.5768231,12.3932237 53.5351562,13.4921875 Z M63.5351562,13.390625 L62.4882812,14.3203125 L62.0273437,17 L60.1757812,17 L62.2539062,5 L64.1054687,5 L62.9179687,11.8125 L63.5664062,11.140625 L66.2539062,8.546875 L68.6210937,8.546875 L64.8710937,12.15625 L67.3398437,17 L65.3320312,17 L63.5351562,13.390625 Z M73.3710937,17 C73.3085934,16.7916656 73.282552,16.5286474 73.2929687,16.2109375 C72.5950486,16.8619824 71.842452,17.1770834 71.0351562,17.15625 C70.3007776,17.1458333 69.6927107,16.9101586 69.2109375,16.4492188 C68.7291643,15.9882789 68.5039061,15.4036494 68.5351562,14.6953125 C68.5768231,13.804683 68.9622359,13.1041692 69.6914062,12.59375 C70.4205766,12.0833308 71.3997334,11.828125 72.6289062,11.828125 L73.8320312,11.84375 L73.9414062,11.265625 C73.9726564,11.062499 73.9726564,10.8723967 73.9414062,10.6953125 C73.8372391,10.1328097 73.464847,9.84375008 72.8242187,9.828125 C72.4283834,9.81770828 72.0807307,9.9179677 71.78125,10.1289062 C71.4817693,10.3398448 71.2981774,10.6223941 71.2304687,10.9765625 L69.3789062,10.9921875 C69.4153648,10.4713516 69.6002587,10.0143249 69.9335937,9.62109375 C70.2669287,9.22786262 70.7096327,8.92187609 71.2617187,8.703125 C71.8138048,8.48437391 72.3971323,8.38020828 73.0117187,8.390625 C73.9335984,8.41145844 74.6523412,8.68879941 75.1679687,9.22265625 C75.6835963,9.75651309 75.8971359,10.4479124 75.8085937,11.296875 L75.1601562,15.2578125 L75.0976562,15.9609375 C75.0820312,16.2682307 75.1210933,16.5677069 75.2148437,16.859375 L75.2070312,17 L73.3710937,17 Z M71.4648437,15.640625 C71.8554707,15.6510417 72.2174462,15.5611989 72.5507812,15.3710938 C72.8841162,15.1809886 73.1679676,14.9348973 73.4023437,14.6328125 L73.6914062,13.03125 L72.8085937,13.0234375 C72.1106736,13.0234375 71.5533875,13.1549466 71.1367187,13.4179688 C70.72005,13.6809909 70.4830732,14.0416644 70.4257812,14.5 C70.3841144,14.8489601 70.4609365,15.1236969 70.65625,15.3242188 C70.8515635,15.5247406 71.121092,15.6302083 71.4648437,15.640625 Z M82.3554687,10.28125 C82.1158842,10.2291664 81.8736991,10.203125 81.6289062,10.203125 C80.8164022,10.1822916 80.1705753,10.5182257 79.6914062,11.2109375 L78.6757812,17 L76.8242187,17 L78.2851562,8.546875 L80.0429687,8.5390625 L79.8554687,9.5 C80.4335966,8.73437117 81.1002566,8.35937492 81.8554687,8.375 C82.0273446,8.375 82.2643214,8.41406211 82.5664062,8.4921875 L82.3554687,10.28125 Z M87.3789062,17 C87.3164059,16.7916656 87.2903645,16.5286474 87.3007812,16.2109375 C86.6028611,16.8619824 85.8502645,17.1770834 85.0429687,17.15625 C84.3085901,17.1458333 83.7005232,16.9101586 83.21875,16.4492188 C82.7369768,15.9882789 82.5117186,15.4036494 82.5429687,14.6953125 C82.5846356,13.804683 82.9700484,13.1041692 83.6992187,12.59375 C84.4283891,12.0833308 85.4075459,11.828125 86.6367187,11.828125 L87.8398437,11.84375 L87.9492187,11.265625 C87.9804689,11.062499 87.9804689,10.8723967 87.9492187,10.6953125 C87.8450516,10.1328097 87.4726595,9.84375008 86.8320312,9.828125 C86.4361959,9.81770828 86.0885432,9.9179677 85.7890625,10.1289062 C85.4895818,10.3398448 85.3059899,10.6223941 85.2382812,10.9765625 L83.3867187,10.9921875 C83.4231773,10.4713516 83.6080712,10.0143249 83.9414062,9.62109375 C84.2747412,9.22786262 84.7174452,8.92187609 85.2695312,8.703125 C85.8216173,8.48437391 86.4049448,8.38020828 87.0195312,8.390625 C87.9414109,8.41145844 88.6601537,8.68879941 89.1757812,9.22265625 C89.6914088,9.75651309 89.9049484,10.4479124 89.8164062,11.296875 L89.1679687,15.2578125 L89.1054687,15.9609375 C89.0898437,16.2682307 89.1289058,16.5677069 89.2226562,16.859375 L89.2148437,17 L87.3789062,17 Z M85.4726562,15.640625 C85.8632832,15.6510417 86.2252587,15.5611989 86.5585937,15.3710938 C86.8919287,15.1809886 87.1757801,14.9348973 87.4101562,14.6328125 L87.6992187,13.03125 L86.8164062,13.0234375 C86.1184861,13.0234375 85.5612,13.1549466 85.1445312,13.4179688 C84.7278625,13.6809909 84.4908857,14.0416644 84.4335937,14.5 C84.3919269,14.8489601 84.468749,15.1236969 84.6640625,15.3242188 C84.859376,15.5247406 85.1289045,15.6302083 85.4726562,15.640625 Z M91.4804687,17 L92.7070312,9.953125 L91.4492187,9.953125 L91.6992187,8.546875 L92.9492187,8.546875 L93.0742187,7.640625 C93.2096361,6.76562063 93.5624971,6.07291922 94.1328125,5.5625 C94.7031279,5.05208078 95.4387976,4.80208328 96.3398437,4.8125 C96.6575537,4.82291672 97.0247375,4.87499953 97.4414062,4.96875 L97.2382812,6.453125 C97.0091134,6.40104141 96.7773449,6.375 96.5429687,6.375 C96.1002582,6.36979164 95.7382827,6.48958211 95.4570312,6.734375 C95.1757798,6.97916789 94.9960941,7.31770617 94.9179687,7.75 L94.8007812,8.546875 L96.4726562,8.546875 L96.2226562,9.953125 L94.5585937,9.953125 L93.3320312,17 L91.4804687,17 Z M99.7773437,13.390625 L98.7304687,14.3203125 L98.2695312,17 L96.4179687,17 L98.4960937,5 L100.347656,5 L99.1601562,11.8125 L99.8085937,11.140625 L102.496094,8.546875 L104.863281,8.546875 L101.113281,12.15625 L103.582031,17 L101.574219,17 L99.7773437,13.390625 Z M109.613281,17 C109.550781,16.7916656 109.52474,16.5286474 109.535156,16.2109375 C108.837236,16.8619824 108.084639,17.1770834 107.277344,17.15625 C106.542965,17.1458333 105.934898,16.9101586 105.453125,16.4492188 C104.971352,15.9882789 104.746094,15.4036494 104.777344,14.6953125 C104.819011,13.804683 105.204423,13.1041692 105.933594,12.59375 C106.662764,12.0833308 107.641921,11.828125 108.871094,11.828125 L110.074219,11.84375 L110.183594,11.265625 C110.214844,11.062499 110.214844,10.8723967 110.183594,10.6953125 C110.079427,10.1328097 109.707034,9.84375008 109.066406,9.828125 C108.670571,9.81770828 108.322918,9.9179677 108.023437,10.1289062 C107.723957,10.3398448 107.540365,10.6223941 107.472656,10.9765625 L105.621094,10.9921875 C105.657552,10.4713516 105.842446,10.0143249 106.175781,9.62109375 C106.509116,9.22786262 106.95182,8.92187609 107.503906,8.703125 C108.055992,8.48437391 108.63932,8.38020828 109.253906,8.390625 C110.175786,8.41145844 110.894529,8.68879941 111.410156,9.22265625 C111.925784,9.75651309 112.139323,10.4479124 112.050781,11.296875 L111.402344,15.2578125 L111.339844,15.9609375 C111.324219,16.2682307 111.363281,16.5677069 111.457031,16.859375 L111.449219,17 L109.613281,17 Z M107.707031,15.640625 C108.097658,15.6510417 108.459634,15.5611989 108.792969,15.3710938 C109.126304,15.1809886 109.410155,14.9348973 109.644531,14.6328125 L109.933594,13.03125 L109.050781,13.0234375 C108.352861,13.0234375 107.795575,13.1549466 107.378906,13.4179688 C106.962237,13.6809909 106.725261,14.0416644 106.667969,14.5 C106.626302,14.8489601 106.703124,15.1236969 106.898437,15.3242188 C107.093751,15.5247406 107.36328,15.6302083 107.707031,15.640625 Z M117.355469,12.9296875 L113.363281,12.9296875 L113.636719,11.3984375 L117.628906,11.3984375 L117.355469,12.9296875 Z M121.292969,9.4765625 C121.996097,8.73697547 122.795568,8.37760406 123.691406,8.3984375 C124.493494,8.40885422 125.08854,8.69270555 125.476562,9.25 C125.864585,9.80729445 126.009115,10.5781201 125.910156,11.5625 L125.003906,17 L123.152344,17 L124.074219,11.5390625 C124.100261,11.315103 124.105469,11.1067718 124.089844,10.9140625 C124.022135,10.2786427 123.647139,9.95312508 122.964844,9.9375 C122.27734,9.92708328 121.662763,10.2656216 121.121094,10.953125 L120.066406,17 L118.214844,17 L120.292969,5 L122.152344,5 L121.292969,9.4765625 Z M131.082031,6.4921875 L130.722656,8.546875 L132.167969,8.546875 L131.925781,9.953125 L130.472656,9.953125 L129.675781,14.6875 C129.660156,14.817709 129.657552,14.9348953 129.667969,15.0390625 C129.699219,15.3776059 129.90755,15.5546874 130.292969,15.5703125 C130.485678,15.5703125 130.704426,15.5468752 130.949219,15.5 L130.824219,16.984375 C130.4388,17.0937505 130.050783,17.1484375 129.660156,17.1484375 C129.01432,17.1380208 128.531252,16.9179709 128.210937,16.4882812 C127.890623,16.0585916 127.764323,15.4895869 127.832031,14.78125 L128.621094,9.953125 L127.269531,9.953125 L127.519531,8.546875 L128.863281,8.546875 L129.222656,6.4921875 L131.082031,6.4921875 Z M136.324219,6.4921875 L135.964844,8.546875 L137.410156,8.546875 L137.167969,9.953125 L135.714844,9.953125 L134.917969,14.6875 C134.902344,14.817709 134.89974,14.9348953 134.910156,15.0390625 C134.941406,15.3776059 135.149738,15.5546874 135.535156,15.5703125 C135.727866,15.5703125 135.946613,15.5468752 136.191406,15.5 L136.066406,16.984375 C135.680988,17.0937505 135.292971,17.1484375 134.902344,17.1484375 C134.256507,17.1380208 133.773439,16.9179709 133.453125,16.4882812 C133.132811,16.0585916 133.00651,15.4895869 133.074219,14.78125 L133.863281,9.953125 L132.511719,9.953125 L132.761719,8.546875 L134.105469,8.546875 L134.464844,6.4921875 L136.324219,6.4921875 Z M145.332031,12.8046875 C145.227864,13.6484417 145.002606,14.4140591 144.65625,15.1015625 C144.309894,15.7890659 143.869794,16.308592 143.335938,16.6601562 C142.802081,17.0117205 142.20443,17.1796876 141.542969,17.1640625 C140.662756,17.1432291 139.970055,16.8307322 139.464844,16.2265625 L138.707031,20.25 L136.847656,20.25 L138.878906,8.546875 L140.574219,8.5390625 L140.433594,9.4140625 C141.07943,8.71093398 141.847652,8.36979156 142.738281,8.390625 C143.274742,8.39583336 143.740883,8.53255074 144.136719,8.80078125 C144.532554,9.06901176 144.835936,9.45833078 145.046875,9.96875 C145.257814,10.4791692 145.371094,11.0468719 145.386719,11.671875 C145.391927,11.9895849 145.373698,12.3671853 145.332031,12.8046875 Z M143.503906,12.640625 L143.542969,12.0703125 C143.558594,11.3984341 143.447918,10.877606 143.210937,10.5078125 C142.973957,10.138019 142.618492,9.94791672 142.144531,9.9375 C141.446611,9.91666656 140.84245,10.2369759 140.332031,10.8984375 L139.675781,14.671875 C139.910157,15.3020865 140.386715,15.6276041 141.105469,15.6484375 C141.720055,15.6640626 142.236977,15.4244816 142.65625,14.9296875 C143.075523,14.4348934 143.358072,13.6718802 143.503906,12.640625 Z M150.519531,12.9296875 L146.527344,12.9296875 L146.800781,11.3984375 L150.792969,11.3984375 L150.519531,12.9296875 Z M156.933594,10.28125 C156.694009,10.2291664 156.451824,10.203125 156.207031,10.203125 C155.394527,10.1822916 154.7487,10.5182257 154.269531,11.2109375 L153.253906,17 L151.402344,17 L152.863281,8.546875 L154.621094,8.5390625 L154.433594,9.5 C155.011722,8.73437117 155.678382,8.35937492 156.433594,8.375 C156.60547,8.375 156.842446,8.41406211 157.144531,8.4921875 L156.933594,10.28125 Z M160.761719,17.15625 C160.02734,17.1406249 159.390628,16.9557309 158.851562,16.6015625 C158.312497,16.2473941 157.914064,15.7630239 157.65625,15.1484375 C157.398436,14.5338511 157.300781,13.8489621 157.363281,13.09375 L157.386719,12.7734375 C157.480469,11.9140582 157.731769,11.1419305 158.140625,10.4570312 C158.549481,9.77213199 159.058591,9.25260594 159.667969,8.8984375 C160.277347,8.54426906 160.938799,8.37499992 161.652344,8.390625 C162.709641,8.41145844 163.502602,8.80468367 164.03125,9.5703125 C164.559898,10.3359413 164.759115,11.3333272 164.628906,12.5625 L164.519531,13.375 L159.199219,13.375 C159.152344,14.0468784 159.287759,14.5885396 159.605469,15 C159.923179,15.4114604 160.360674,15.6223958 160.917969,15.6328125 C161.714848,15.6588543 162.449215,15.3125036 163.121094,14.59375 L164.058594,15.578125 C163.704425,16.0833359 163.238284,16.475259 162.660156,16.7539062 C162.082028,17.0325535 161.449222,17.1666667 160.761719,17.15625 Z M161.550781,9.90625 C160.57161,9.87499984 159.837242,10.5677012 159.347656,11.984375 L162.855469,11.9921875 L162.886719,11.828125 C162.923177,11.5885405 162.925781,11.3541678 162.894531,11.125 C162.837239,10.7552065 162.691407,10.4635427 162.457031,10.25 C162.222655,10.0364573 161.920575,9.92187508 161.550781,9.90625 Z M173.253906,12.8046875 C173.149739,13.6484417 172.924481,14.4140591 172.578125,15.1015625 C172.231769,15.7890659 171.791669,16.308592 171.257812,16.6601562 C170.723956,17.0117205 170.126305,17.1796876 169.464844,17.1640625 C168.584631,17.1432291 167.89193,16.8307322 167.386719,16.2265625 L166.628906,20.25 L164.769531,20.25 L166.800781,8.546875 L168.496094,8.5390625 L168.355469,9.4140625 C169.001305,8.71093398 169.769527,8.36979156 170.660156,8.390625 C171.196617,8.39583336 171.662758,8.53255074 172.058594,8.80078125 C172.454429,9.06901176 172.757811,9.45833078 172.96875,9.96875 C173.179689,10.4791692 173.292969,11.0468719 173.308594,11.671875 C173.313802,11.9895849 173.295573,12.3671853 173.253906,12.8046875 Z M171.425781,12.640625 L171.464844,12.0703125 C171.480469,11.3984341 171.369793,10.877606 171.132812,10.5078125 C170.895832,10.138019 170.540367,9.94791672 170.066406,9.9375 C169.368486,9.91666656 168.764325,10.2369759 168.253906,10.8984375 L167.597656,14.671875 C167.832032,15.3020865 168.30859,15.6276041 169.027344,15.6484375 C169.64193,15.6640626 170.158852,15.4244816 170.578125,14.9296875 C170.997398,14.4348934 171.279947,13.6718802 171.425781,12.640625 Z M174.597656,12.7421875 C174.686198,11.9140584 174.929686,11.1614617 175.328125,10.484375 C175.726564,9.80728828 176.238278,9.28385602 176.863281,8.9140625 C177.488284,8.54426898 178.180986,8.36979156 178.941406,8.390625 C179.665368,8.40104172 180.290362,8.59374813 180.816406,8.96875 C181.342451,9.34375188 181.726561,9.85676758 181.96875,10.5078125 C182.210939,11.1588574 182.295573,11.8828085 182.222656,12.6796875 C182.139322,13.5755253 181.895835,14.3671841 181.492187,15.0546875 C181.08854,15.7421909 180.57292,16.2695294 179.945312,16.6367188 C179.317705,17.0039081 178.621098,17.1770834 177.855469,17.15625 C177.136715,17.1458333 176.515628,16.9544289 175.992187,16.5820312 C175.468747,16.2096336 175.084637,15.699222 174.839844,15.0507812 C174.595051,14.4023405 174.50651,13.6875039 174.574219,12.90625 L174.597656,12.7421875 Z M176.417969,13.8125 C176.444011,14.3593777 176.58854,14.7981754 176.851562,15.1289062 C177.114585,15.4596371 177.480466,15.6328124 177.949219,15.6484375 C178.584639,15.6640626 179.117185,15.4192734 179.546875,14.9140625 C179.976565,14.4088516 180.246093,13.7187544 180.355469,12.84375 L180.402344,12.078125 C180.402344,11.411455 180.269533,10.8880227 180.003906,10.5078125 C179.73828,10.1276023 179.352867,9.92708344 178.847656,9.90625 C178.055986,9.88541656 177.430992,10.2734335 176.972656,11.0703125 C176.696613,11.5546899 176.522136,12.111976 176.449219,12.7421875 C176.407552,13.1796897 176.397135,13.536457 176.417969,13.8125 Z M188.597656,10.28125 C188.358072,10.2291664 188.115887,10.203125 187.871094,10.203125 C187.05859,10.1822916 186.412763,10.5182257 185.933594,11.2109375 L184.917969,17 L183.066406,17 L184.527344,8.546875 L186.285156,8.5390625 L186.097656,9.5 C186.675784,8.73437117 187.342444,8.35937492 188.097656,8.375 C188.269532,8.375 188.506509,8.41406211 188.808594,8.4921875 L188.597656,10.28125 Z M192.746094,6.4921875 L192.386719,8.546875 L193.832031,8.546875 L193.589844,9.953125 L192.136719,9.953125 L191.339844,14.6875 C191.324219,14.817709 191.321615,14.9348953 191.332031,15.0390625 C191.363281,15.3776059 191.571613,15.5546874 191.957031,15.5703125 C192.149741,15.5703125 192.368488,15.5468752 192.613281,15.5 L192.488281,16.984375 C192.102863,17.0937505 191.714846,17.1484375 191.324219,17.1484375 C190.678382,17.1380208 190.195314,16.9179709 189.875,16.4882812 C189.554686,16.0585916 189.428385,15.4895869 189.496094,14.78125 L190.285156,9.953125 L188.933594,9.953125 L189.183594,8.546875 L190.527344,8.546875 L190.886719,6.4921875 L192.746094,6.4921875 Z M197.667969,17.15625 C196.93359,17.1406249 196.296878,16.9557309 195.757812,16.6015625 C195.218747,16.2473941 194.820314,15.7630239 194.5625,15.1484375 C194.304686,14.5338511 194.207031,13.8489621 194.269531,13.09375 L194.292969,12.7734375 C194.386719,11.9140582 194.638019,11.1419305 195.046875,10.4570312 C195.455731,9.77213199 195.964841,9.25260594 196.574219,8.8984375 C197.183597,8.54426906 197.845049,8.37499992 198.558594,8.390625 C199.615891,8.41145844 200.408852,8.80468367 200.9375,9.5703125 C201.466148,10.3359413 201.665365,11.3333272 201.535156,12.5625 L201.425781,13.375 L196.105469,13.375 C196.058594,14.0468784 196.194009,14.5885396 196.511719,15 C196.829429,15.4114604 197.266924,15.6223958 197.824219,15.6328125 C198.621098,15.6588543 199.355465,15.3125036 200.027344,14.59375 L200.964844,15.578125 C200.610675,16.0833359 200.144534,16.475259 199.566406,16.7539062 C198.988278,17.0325535 198.355472,17.1666667 197.667969,17.15625 Z M198.457031,9.90625 C197.47786,9.87499984 196.743492,10.5677012 196.253906,11.984375 L199.761719,11.9921875 L199.792969,11.828125 C199.829427,11.5885405 199.832031,11.3541678 199.800781,11.125 C199.743489,10.7552065 199.597657,10.4635427 199.363281,10.25 C199.128905,10.0364573 198.826825,9.92187508 198.457031,9.90625 Z M207.777344,10.28125 C207.537759,10.2291664 207.295574,10.203125 207.050781,10.203125 C206.238277,10.1822916 205.59245,10.5182257 205.113281,11.2109375 L204.097656,17 L202.246094,17 L203.707031,8.546875 L205.464844,8.5390625 L205.277344,9.5 C205.855472,8.73437117 206.522132,8.35937492 207.277344,8.375 C207.44922,8.375 207.686196,8.41406211 207.988281,8.4921875 L207.777344,10.28125 Z" id="cloudkarafka-http-reporter" fill="#FFFFFF"></path>
                <polygon id="1" fill="#FDB913" points="6.82226562 19 4 19 4 8.12109375 0.63085938 9.16601562 0.63085938 6.87109375 6.51953125 4.76171875 6.82226562 4.76171875"></polygon>
            </g>
        </g>
    </g>
</svg>