<svg xmlns="http://www.w3.org/2000/svg" xmlns:xlink="http://www.w3.org/1999/xlink" width="80" height="91" viewBox="0 0 80 91"><defs><path id="vymsa" d="M1039.617 1531.14l1.243 9.368 19.368.8 1.576-10.167z"/><path id="vymsb" d="M997.527 1519.084l2.972 8.963 19.095-4.792v-8.994z"/><path id="vymsc" d="M1016.414 1541.843c-5.072 2.42-9.937.706-12.393-4.367-1.372-2.832-2.237-5.542-2.996-8.567l19.09-4.034c2.26 6.723 1.739 14.372-3.701 16.968zm6.478-19.688a1.777 1.777 0 0 0-2.017-1.076l-22.375 4.727a1.778 1.778 0 0 0-1.364 2.141c.926 3.994 1.906 7.405 3.682 11.072 1.544 3.187 4.01 5.567 6.943 6.701 1.332.515 2.728.772 4.157.772 1.966 0 3.997-.485 6.02-1.45 3.741-1.785 6.083-5.239 6.77-9.988.576-3.97-.07-8.552-1.816-12.9z"/><path id="vymsd" d="M1020.936 1502.56l-3.279 2.495c-.43.327-.977.442-1.502.318l-4.415-1.052a5.34 5.34 0 0 0-4.48.947l-3.609 2.747c-.43.326-.979.442-1.504.318l-4.413-1.053a5.338 5.338 0 0 0-3.768.491 39.705 39.705 0 0 1-1.83-7.41l.871-.664c.43-.327.98-.443 1.504-.318l4.413 1.052a5.338 5.338 0 0 0 4.479-.947l3.608-2.746a1.798 1.798 0 0 1 1.505-.318l1.932.46a1.778 1.778 0 1 0 .824-3.459l-1.933-.46a5.341 5.341 0 0 0-4.48.947l-3.608 2.746c-.43.327-.98.443-1.504.318l-4.413-1.052a5.338 5.338 0 0 0-3.583.397c-.123-2.85.074-5.64.587-8.245l4.183.997a5.321 5.321 0 0 0 4.481-.946l3.61-2.747c.43-.327.978-.443 1.504-.317l4.415 1.052c1.566.372 3.2.026 4.477-.948l3.186-2.422c.34.715.632 1.443.873 2.171 1.844 5.595 2.549 12.378 1.869 17.649zm-1.236 10.406l-22.275 4.706c-.63-2.224-1.366-4.646-2.12-6.538l.101-.077c.43-.327.98-.443 1.504-.318l4.414 1.052a5.34 5.34 0 0 0 4.479-.947l3.608-2.746c.431-.327.98-.443 1.505-.319l4.415 1.052a5.334 5.334 0 0 0 4.479-.946l.442-.337a381.31 381.31 0 0 0-.552 5.418zm-24.331-32.957c1.739-2.803 4.91-6.196 10.144-6.442.158-.007.314-.01.47-.01 4.183 0 7.868 2.623 10.388 6.105l-3.516 2.672a1.786 1.786 0 0 1-1.5.318l-4.413-1.051a5.327 5.327 0 0 0-4.482.946l-3.612 2.747a1.786 1.786 0 0 1-1.503.316l-4.108-.978c.558-1.675 1.268-3.231 2.132-4.623zm27.073 3.79c-2.282-6.918-8.609-14.185-17.096-13.783-5.364.252-9.859 3.059-12.997 8.118-5.29 8.526-5.625 21.706-.894 33.005.025.07.054.14.088.208.06.143.119.287.18.429 1.085 2.472 2.276 6.816 2.724 8.451a1.778 1.778 0 0 0 2.082 1.27l25.18-5.321a1.778 1.778 0 0 0 1.403-1.568l.099-1.022c.297-3.065.703-7.263 1.059-9.299 1.037-5.935.32-13.977-1.828-20.488z"/><path id="vymse" d="M1018.918 1494.112a1.89 1.89 0 0 0-.264-.64 1.816 1.816 0 0 0-.49-.49 1.88 1.88 0 0 0-.636-.267 1.818 1.818 0 0 0-.695 0 1.792 1.792 0 0 0-.638.266 1.69 1.69 0 0 0-.489.49 1.817 1.817 0 0 0-.264.64 1.756 1.756 0 0 0-.035.347c0 .468.19.927.519 1.257a1.75 1.75 0 0 0 .908.486 1.742 1.742 0 0 0 1.33-.265 1.69 1.69 0 0 0 .269-.22 1.795 1.795 0 0 0 .485-1.604z"/><path id="vymsf" d="M1058.723 1550.646c-1.579 5.408-6.09 7.905-11.49 6.362-5.793-1.656-7.575-9.11-6.464-16.112l19.485.808c-.245 3.108-.649 5.922-1.53 8.942zm4.752-11.833a1.778 1.778 0 0 0-1.246-.584l-22.849-.947a1.782 1.782 0 0 0-1.81 1.396c-1.001 4.577-.877 9.202.35 13.022 1.467 4.569 4.35 7.586 8.336 8.725 1.404.401 2.778.6 4.101.6 2.185 0 4.23-.543 6.047-1.622 2.704-1.606 4.74-4.362 5.733-7.76 1.143-3.912 1.543-7.438 1.793-11.53a1.776 1.776 0 0 0-.455-1.3z"/><path id="vymsg" d="M1040.34 1510.07a1.844 1.844 0 0 0-.486-.908 1.71 1.71 0 0 0-.576-.386 1.741 1.741 0 0 0-1.354 0 1.752 1.752 0 0 0-.796.656 1.818 1.818 0 0 0-.264.639 1.774 1.774 0 0 0 0 .695 1.768 1.768 0 0 0 3.373.332c.044-.107.08-.219.103-.332.021-.114.034-.231.034-.347 0-.117-.013-.233-.034-.348z"/><path id="vymsh" d="M1063.713 1519.688a5.336 5.336 0 0 0-3.798.142l-4.173 1.77c-.5.21-1.06.187-1.537-.063l-4.018-2.11a5.339 5.339 0 0 0-4.573-.19l-4.178 1.77a1.79 1.79 0 0 1-1.534-.063l-3.647-1.915c-1.546-5.085-1.978-11.891-1.087-17.714a18.83 18.83 0 0 1 .5-2.286l3.54 1.858c1.425.75 3.093.82 4.576.192l4.18-1.77a1.784 1.784 0 0 1 1.533.064l4.014 2.107a5.334 5.334 0 0 0 4.577.19l3.96-1.678c.938 2.483 1.595 5.202 1.947 8.033a5.34 5.34 0 0 0-3.6.204l-4.173 1.77c-.5.21-1.06.187-1.537-.063l-4.017-2.111a5.34 5.34 0 0 0-4.574-.189l-1.829.775a1.778 1.778 0 1 0 1.387 3.274l1.828-.774a1.796 1.796 0 0 1 1.536.063l4.017 2.11a5.342 5.342 0 0 0 4.575.189l4.172-1.77a1.795 1.795 0 0 1 1.537.063l.97.51a39.73 39.73 0 0 1-.574 7.612zm-1.766 10.339l-22.745-.943c-.454-1.685-.961-3.56-1.444-5.25l.492.258a5.334 5.334 0 0 0 4.573.19l4.177-1.77a1.794 1.794 0 0 1 1.536.063l4.017 2.11a5.342 5.342 0 0 0 4.575.189l4.172-1.77c.5-.21 1.06-.187 1.537.063l.113.06c-.427 1.99-.752 4.501-1.003 6.8zm-15.299-42.15c5.2-.627 8.892 2.192 11.072 4.667 1.083 1.23 2.041 2.647 2.87 4.205l-3.889 1.647a1.784 1.784 0 0 1-1.535-.064l-4.015-2.108a5.325 5.325 0 0 0-4.575-.19l-4.178 1.77a1.785 1.785 0 0 1-1.535-.065l-3.908-2.05c1.977-3.996 5.344-7.289 9.693-7.813zm13.74 2.317c-3.935-4.468-8.834-6.49-14.165-5.847-8.44 1.017-13.468 9.23-14.57 16.43-1.037 6.778-.409 14.828 1.6 20.508.689 1.947 1.786 6.017 2.587 8.99l.27.995c.202.75.867 1.28 1.642 1.313l25.715 1.065.074.002c.908 0 1.676-.688 1.768-1.6.17-1.687.623-6.169 1.281-8.786.038-.15.071-.3.107-.451a1.75 1.75 0 0 0 .053-.222c2.79-11.927.27-24.869-6.362-32.397z"/></defs><g><g transform="translate(-988 -1470)"><g><use fill="#fdb913" xlink:href="#vymsa"/></g><g><use fill="#fdb913" xlink:href="#vymsb"/></g><g><use fill="#3a5b85" xlink:href="#vymsc"/></g><g><use fill="#3a5b85" xlink:href="#vymsd"/></g><g><use fill="#3a5b85" xlink:href="#vymse"/></g><g><use fill="#3a5b85" xlink:href="#vymsf"/></g><g><use fill="#3a5b85" xlink:href="#vymsg"/></g><g><use fill="#3a5b85" xlink:href="#vymsh"/></g></g></g></svg>