<svg xmlns="http://www.w3.org/2000/svg" xmlns:xlink="http://www.w3.org/1999/xlink" width="314" height="41" viewBox="0 0 314 41"><defs><path id="lposa" d="M160.715 3169.961c6.884-3.515 6.884 5.272 13.696.322 0 0 2.57 4.96 3.044 6.79.474 1.832 1.47 10.97 1.505 11.977.036 1.006-2.243 1.546-2.243 1.546s-4.097 1.265-9.155 1.388c-5.057.124-10.907-1.604-11.4-2.576-.492-.971.72-10.005 1.437-12.195.717-2.19 3.116-7.252 3.116-7.252z"/><path id="lposb" d="M167.992 3190.728h-.017c-4.923-.002-9.186-.903-10.783-2.258.039-10.795 2.524-15.492 4.458-18.851 2.903-1.447 4.31-.5 5.933.594 1.012.683 2.1 1.417 3.552 1.417.985 0 2.138-.338 3.548-1.259 1.858 3.312 4.035 8.053 4.087 18.1-1.6 1.358-5.86 2.257-10.778 2.257zm-5.756-34.527l.237.037c1.524.228 3.544.354 5.687.354 2.137 0 4.138-.126 5.636-.354.018-.004.037-.006.055-.009-.942 1.334-1.922 3.538-1.922 6.936 0 2.408 1 4.148 2.16 6.158-2.855 1.9-4.183 1.007-5.841-.111-1.438-.97-3.036-2.047-5.651-1.268.827-1.52 1.445-2.997 1.445-4.887 0-3.332-.912-5.515-1.806-6.856zm5.923-1.985c3.412 0 5.663.31 6.694.585-1.031.275-3.28.586-6.694.586-3.444 0-5.722-.31-6.776-.586 1.054-.276 3.332-.585 6.776-.585zm6.97 14.526c-1.166-2.02-2.008-3.48-2.008-5.573 0-5.687 2.927-7.56 3.051-7.638l-.004-.006c.273-.2.399-.437.399-.72 0-.715-.803-1.13-2.773-1.43-1.497-.229-3.498-.355-5.636-.355-2.143 0-4.163.126-5.687.355-2.034.305-2.827.706-2.827 1.432 0 .233.083.433.261.606l-.003.005.03.02c.053.049.114.095.185.14.682.557 2.731 2.635 2.731 7.482 0 2.094-.843 3.552-2.01 5.572-2.04 3.534-4.838 8.375-4.838 20.1a.6.6 0 0 0 .174.423c2.032 2.04 7.429 2.768 11.8 2.77h.018c4.373 0 9.762-.728 11.796-2.77a.602.602 0 0 0 .175-.424c-.018-11.642-2.801-16.466-4.834-19.989z"/><path id="lposc" d="M163.16 3183.12c0-1.74 1.406-3.15 3.14-3.15 1.734 0 3.14 1.41 3.14 3.15s-1.406 3.15-3.14 3.15a3.145 3.145 0 0 1-3.14-3.15z"/><path id="lposd" d="M166.303 3180.518a2.608 2.608 0 0 0-2.6 2.609 2.608 2.608 0 0 0 2.6 2.609 2.608 2.608 0 0 0 2.601-2.61 2.608 2.608 0 0 0-2.6-2.608zm0 6.305a3.694 3.694 0 0 1-3.683-3.696 3.694 3.694 0 0 1 3.683-3.697 3.694 3.694 0 0 1 3.683 3.697 3.694 3.694 0 0 1-3.683 3.696z"/><path id="lpose" d="M161.98 3175.49c0-1.071.862-1.94 1.925-1.94 1.063 0 1.925.869 1.925 1.94s-.862 1.94-1.925 1.94a1.933 1.933 0 0 1-1.925-1.94z"/><path id="lposf" d="M163.912 3173.99a1.5 1.5 0 0 0-1.495 1.5c0 .828.67 1.502 1.495 1.502a1.5 1.5 0 0 0 1.496-1.501 1.5 1.5 0 0 0-1.496-1.501zm0 3.872a2.37 2.37 0 0 1-2.362-2.371 2.37 2.37 0 0 1 2.362-2.371 2.37 2.37 0 0 1 2.362 2.37 2.37 2.37 0 0 1-2.362 2.372z"/><path id="lposg" d="M169.91 3177.235c0-1.069.864-1.935 1.93-1.935 1.066 0 1.93.866 1.93 1.935a1.933 1.933 0 0 1-1.93 1.935 1.933 1.933 0 0 1-1.93-1.935z"/><path id="lposh" d="M171.832 3175.73c-.823 0-1.493.673-1.493 1.5 0 .828.67 1.502 1.493 1.502.824 0 1.494-.674 1.494-1.501 0-.828-.67-1.501-1.494-1.501zm0 3.872a2.37 2.37 0 0 1-2.362-2.371 2.37 2.37 0 0 1 2.362-2.371 2.37 2.37 0 0 1 2.362 2.37 2.369 2.369 0 0 1-2.362 2.372z"/><path id="lposi" d="M172.24 3185.065c0-1.069.864-1.935 1.93-1.935 1.066 0 1.93.866 1.93 1.935a1.933 1.933 0 0 1-1.93 1.935 1.933 1.933 0 0 1-1.93-1.935z"/><path id="lposj" d="M174.172 3183.56a1.5 1.5 0 0 0-1.495 1.5c0 .828.67 1.502 1.495 1.502a1.5 1.5 0 0 0 1.496-1.501 1.5 1.5 0 0 0-1.496-1.501zm0 3.872a2.37 2.37 0 0 1-2.362-2.371 2.37 2.37 0 0 1 2.362-2.371 2.37 2.37 0 0 1 2.362 2.37 2.369 2.369 0 0 1-2.362 2.372z"/><path id="lposk" d="M196.932 3183.754c-2.34-2.409-3.51-5.606-3.51-9.59s1.17-7.18 3.51-9.59c2.339-2.408 5.372-3.613 9.097-3.613 3.109 0 5.71.757 7.804 2.27 2.093 1.513 3.494 3.659 4.203 6.439h-7.02c-.83-2.132-2.493-3.197-4.987-3.197-1.879 0-3.348.688-4.41 2.062-1.062 1.375-1.594 3.251-1.594 5.63 0 2.378.532 4.254 1.594 5.629 1.062 1.374 2.532 2.061 4.41 2.061 2.463 0 4.125-1.08 4.988-3.243h7.019c-.74 2.688-2.164 4.818-4.271 6.394-2.11 1.575-4.688 2.363-7.736 2.363-3.726 0-6.758-1.206-9.097-3.615z"/><path id="lposl" d="M219.595 3187.007v-34.293h6.509v34.293z"/><path id="lposm" d="M241.05 3181.855c1.814 0 3.376-.672 4.685-2.015 1.308-1.344 1.961-3.243 1.961-5.7 0-2.455-.646-4.346-1.938-5.675-1.293-1.328-2.856-1.992-4.686-1.992-1.831 0-3.377.664-4.639 1.992-1.262 1.328-1.893 3.228-1.893 5.699 0 2.47.63 4.37 1.893 5.698 1.263 1.328 2.8 1.993 4.616 1.993zm-9.37 1.853c-2.493-2.44-3.74-5.637-3.74-9.59 0-3.953 1.261-7.134 3.785-9.544 2.523-2.409 5.654-3.614 9.394-3.614s6.87 1.205 9.394 3.614c2.522 2.409 3.785 5.59 3.785 9.544 0 3.954-1.27 7.15-3.808 9.59-2.54 2.44-5.686 3.66-9.44 3.66-3.755 0-6.878-1.22-9.37-3.66z"/><path id="lposn" d="M273.794 3161.332h6.512v25.665h-6.512v-3.89c-1.632 2.81-4.295 4.216-7.99 4.216-2.894 0-5.263-.965-7.11-2.897-1.848-1.93-2.772-4.61-2.772-8.038v-15.056h6.466v14.13c0 2.007.508 3.552 1.524 4.633 1.016 1.08 2.401 1.621 4.156 1.621s3.147-.54 4.18-1.621c1.03-1.081 1.546-2.624 1.546-4.633v-14.13z"/><path id="lposo" d="M300.185 3179.696c1.353-1.342 2.03-3.187 2.03-5.534 0-2.346-.677-4.191-2.03-5.535-1.354-1.342-2.939-2.014-4.755-2.014-1.816 0-3.393.664-4.732 1.991-1.338 1.328-2.008 3.165-2.008 5.511 0 2.347.676 4.2 2.03 5.557 1.354 1.36 2.932 2.038 4.733 2.038 1.8 0 3.378-.671 4.732-2.014zm-14.656 3.94c-2.293-2.487-3.439-5.66-3.439-9.521 0-3.86 1.138-7.02 3.416-9.475 2.276-2.455 5.17-3.683 8.678-3.683 3.509 0 6.185 1.452 8.032 4.354v-12.601h6.462v34.283h-6.462v-4.308c-1.939 3.12-4.633 4.68-8.079 4.68-3.446 0-6.316-1.244-8.608-3.73z"/><path id="lposp" d="M318.794 3187.007h-6.509v-34.293h6.51v19.603l8.631-10.983h8.817l-11.356 12.976 11.355 12.697h-8.678l-8.77-10.705v10.705z"/><path id="lposq" d="M352.945 3179.7c1.353-1.343 2.03-3.188 2.03-5.536 0-2.347-.677-4.193-2.03-5.537-1.354-1.343-2.939-2.015-4.755-2.015-1.816 0-3.393.664-4.732 1.992-1.338 1.328-2.008 3.166-2.008 5.513 0 2.348.676 4.201 2.03 5.56 1.354 1.359 2.932 2.037 4.733 2.037 1.8 0 3.378-.67 4.732-2.014zm-14.656 3.938c-2.293-2.486-3.439-5.66-3.439-9.52 0-3.86 1.138-7.019 3.416-9.475 2.276-2.455 5.17-3.683 8.678-3.683 3.509 0 6.185 1.452 8.032 4.354v-3.983h6.462v25.666h-6.462v-4.31c-1.939 3.121-4.633 4.68-8.079 4.68-3.445 0-6.316-1.243-8.608-3.729z"/><path id="lposr" d="M371.541 3161.332v4.54c1.722-3.273 4.213-4.911 7.473-4.911v6.67h-1.615c-1.937 0-3.398.487-4.382 1.46-.984.973-1.476 2.648-1.476 5.027v12.88h-6.504v-25.666z"/><path id="lposs" d="M396.616 3179.7c1.354-1.343 2.03-3.188 2.03-5.536 0-2.347-.676-4.193-2.03-5.537-1.354-1.343-2.939-2.015-4.755-2.015-1.816 0-3.392.664-4.732 1.992-1.338 1.328-2.008 3.166-2.008 5.513 0 2.348.676 4.201 2.031 5.56 1.353 1.359 2.931 2.037 4.732 2.037 1.801 0 3.378-.67 4.732-2.014zm-14.657 3.938c-2.293-2.486-3.439-5.66-3.439-9.52 0-3.86 1.138-7.019 3.416-9.475 2.276-2.455 5.17-3.683 8.678-3.683 3.509 0 6.185 1.452 8.032 4.354v-3.983h6.462v25.666h-6.462v-4.31c-1.939 3.121-4.633 4.68-8.079 4.68-3.445 0-6.315-1.243-8.608-3.729z"/><path id="lpost" d="M419.666 3161.332v5.327H415.6v20.338h-6.467v-20.338h-2.772v-5.327h2.772v-1.437c0-3.089.815-5.343 2.448-6.765 1.633-1.419 4.205-2.13 7.715-2.13v5.467c-1.356 0-2.31.263-2.864.787-.554.526-.832 1.407-.832 2.64v1.438z"/><path id="lposu" d="M427.309 3187.007h-6.51v-34.293h6.51v19.603l8.632-10.983h8.817l-11.356 12.976 11.355 12.697h-8.678l-8.771-10.705v10.705z"/><path id="lposv" d="M461.477 3179.7c1.354-1.343 2.031-3.188 2.031-5.536 0-2.347-.677-4.193-2.031-5.537-1.355-1.343-2.94-2.015-4.757-2.015-1.817 0-3.394.664-4.734 1.992-1.338 1.328-2.008 3.166-2.008 5.513 0 2.348.676 4.201 2.031 5.56 1.354 1.359 2.932 2.037 4.734 2.037s3.379-.67 4.734-2.014zm-14.658 3.938c-2.293-2.486-3.439-5.66-3.439-9.52 0-3.86 1.138-7.019 3.416-9.475 2.276-2.455 5.17-3.683 8.678-3.683 3.509 0 6.185 1.452 8.032 4.354v-3.983h6.462v25.666h-6.462v-4.31c-1.939 3.121-4.633 4.68-8.079 4.68-3.445 0-6.316-1.243-8.608-3.729z"/></defs><g><g transform="translate(-156 -3151)"><g><use fill="#0580ff" xlink:href="#lposa"/></g></g><g transform="translate(-156 -3151)"><g><use fill="#fff" xlink:href="#lposb"/></g><g><g><use fill="#0580ff" xlink:href="#lposc"/></g><g><use fill="#125eb4" xlink:href="#lposd"/></g></g><g><g><use fill="#0580ff" xlink:href="#lpose"/></g><g><use fill="#125eb4" xlink:href="#lposf"/></g></g><g><g><use fill="#0580ff" xlink:href="#lposg"/></g><g><use fill="#125eb4" xlink:href="#lposh"/></g></g><g><g><use fill="#0580ff" xlink:href="#lposi"/></g><g><use fill="#125eb4" xlink:href="#lposj"/></g></g><g><g><use fill="#fff" xlink:href="#lposk"/></g><g><use fill="#fff" xlink:href="#lposl"/></g><g><use fill="#fff" xlink:href="#lposm"/></g><g><use fill="#fff" xlink:href="#lposn"/></g><g><use fill="#fff" xlink:href="#lposo"/></g><g><use fill="#fff" xlink:href="#lposp"/></g><g><use fill="#fff" xlink:href="#lposq"/></g><g><use fill="#fff" xlink:href="#lposr"/></g><g><use fill="#fff" xlink:href="#lposs"/></g><g><use fill="#fff" xlink:href="#lpost"/></g><g><use fill="#fff" xlink:href="#lposu"/></g><g><use fill="#fff" xlink:href="#lposv"/></g></g></g></g></svg>