<svg xmlns="http://www.w3.org/2000/svg" xmlns:xlink="http://www.w3.org/1999/xlink" width="27" height="30" viewBox="0 0 27 30"><defs><path id="oi3ba" d="M143.229 59.341a2.12 2.12 0 0 1-2.118-2.121 2.12 2.12 0 0 1 2.118-2.122 2.122 2.122 0 0 1 0 4.242zm-9.748-6.293a2.228 2.228 0 1 1 0-4.455 2.228 2.228 0 0 1 0 4.455zm.802 11.046a2.104 2.104 0 0 1-2.297-.457 2.115 2.115 0 0 1-.457-2.302 2.107 2.107 0 0 1 1.947-1.303 2.112 2.112 0 0 1 .807 4.062zm-10.425-4.754a2.117 2.117 0 0 1-2.112-2.122c0-1.171.945-2.121 2.112-2.121 1.167 0 2.113.95 2.113 2.121a2.12 2.12 0 0 1-2.113 2.122zm7.51-19.476c0-1.169.947-2.116 2.113-2.116 1.167 0 2.113.947 2.113 2.116 0 1.17-.946 2.117-2.113 2.117a2.117 2.117 0 0 1-2.112-2.117zm-7.511 7.062a2.117 2.117 0 0 1-2.111-2.122c0-1.172.946-2.121 2.112-2.121 1.167 0 2.112.95 2.113 2.12a2.12 2.12 0 0 1-2.113 2.123zm19.366-4.243c.855 0 1.625.515 1.952 1.306a2.12 2.12 0 0 1-.458 2.307 2.11 2.11 0 0 1-2.303.459 2.117 2.117 0 0 1 .81-4.072zm0 10.736a3.784 3.784 0 0 0-2.558.991l-3.079-1.95a4.416 4.416 0 0 0 .099-2.996l2.962-1.878a3.798 3.798 0 1 0-1.01-1.55l-2.882 1.822a4.411 4.411 0 0 0-2.288-1.339v-2.992a3.798 3.798 0 1 0-1.852.03v2.936a4.41 4.41 0 0 0-2.362 1.318l-2.806-1.778a3.802 3.802 0 1 0-1.01 1.552l2.866 1.816a4.417 4.417 0 0 0 .098 3.118l-2.983 1.891a3.796 3.796 0 1 0 1.023 1.545l3.017-1.912a4.41 4.41 0 0 0 2.158 1.113v3.3a3.795 3.795 0 1 0 1.852.03v-3.353A4.405 4.405 0 0 0 136.554 54l3.09 1.958a3.797 3.797 0 1 0 3.58-2.536z"/></defs><g><g transform="translate(-120 -36)"><use fill="#fff" xlink:href="#oi3ba"/></g></g></svg>