<svg xmlns="http://www.w3.org/2000/svg" xmlns:xlink="http://www.w3.org/1999/xlink" width="84" height="88" viewBox="0 0 84 88"><defs><path id="bqlna" d="M1024.757 1893.881l20.788-15.03-2.129 4.211-11.836 16.63-4.308 2.116-3.578-3.96z"/><path id="bqlnb" d="M1033.65 1893.978a6.212 6.212 0 0 0-2.435-2.53l8.326-6.114zm-2.508 3.835c-.457 1.704-2.183 2.722-3.857 2.274-1.673-.449-2.659-2.194-2.202-3.898.456-1.704 2.183-2.723 3.856-2.274 1.673.448 2.66 2.193 2.203 3.898zm13.966-20.458l-18.18 13.32c-.041.039-.08.08-.115.123-3.386.753-5.555 4.147-4.845 7.58.71 3.434 4.03 5.606 7.415 4.853 2.175-.483 3.945-2.1 4.653-4.246l13.267-19.432a1.6 1.6 0 0 0 .23-.501c.229-.852-.265-1.725-1.101-1.949a1.557 1.557 0 0 0-1.324.252z"/><path id="bqlnc" d="M1060.937 1875.694c-.014-.03-.014-.063-.03-.094-.018-.03-.045-.045-.064-.073a39.849 39.849 0 0 0-5.18-7.054l3.12-3.148 2.054 2.073 6.163-6.221-6.163-6.223-6.165 6.223 2.056 2.074-3.12 3.149a39.478 39.478 0 0 0-6.986-5.23c-.028-.02-.044-.047-.073-.065-.03-.018-.062-.016-.093-.032a38.703 38.703 0 0 0-14.923-4.993v-1.747h2.179c2.003 0 3.632-1.644 3.632-3.666 0-2.023-1.632-3.667-3.635-3.667h-13.076c-2.003 0-3.632 1.644-3.632 3.667 0 2.022 1.629 3.666 3.632 3.666h2.18v1.696c-1.57.168-3.136.427-4.685.784a1.466 1.466 0 0 0-1.09 1.758c.178.789.958 1.281 1.74 1.101a36.604 36.604 0 0 1 4.155-.711l1.44-.11a50.09 50.09 0 0 1 1.344-.084v2.9c0 .81.65 1.466 1.453 1.466s1.452-.655 1.452-1.466v-2.89a35.778 35.778 0 0 1 15.192 4.173l-1.433 2.505a1.474 1.474 0 0 0 .532 2.004 1.451 1.451 0 0 0 1.985-.537l1.428-2.5a36.78 36.78 0 0 1 11.291 11.4l-2.474 1.441c-.691.405-.93 1.301-.527 2.004a1.45 1.45 0 0 0 1.984.536l2.48-1.446a36.67 36.67 0 0 1 4.14 15.575h-2.87c-.803 0-1.453.655-1.453 1.467 0 .81.65 1.466 1.453 1.466h2.87a36.67 36.67 0 0 1-4.14 15.575l-2.48-1.446a1.442 1.442 0 0 0-1.984.536 1.475 1.475 0 0 0 .532 2.004l2.474 1.442a36.78 36.78 0 0 1-11.292 11.399l-1.428-2.498a1.442 1.442 0 0 0-1.985-.537 1.472 1.472 0 0 0-.531 2.003l1.432 2.504a35.777 35.777 0 0 1-15.191 4.173v-2.887c0-.81-.65-1.466-1.453-1.466s-1.453.655-1.453 1.466v2.898a36.336 36.336 0 0 1-6.939-.904 1.45 1.45 0 0 0-1.74 1.101c-.18.79.31 1.577 1.09 1.757 2.9.675 5.863 1.015 8.802 1.015.071 0 .14-.004.21-.006.011 0 .018.006.027.006.012 0 .022-.007.033-.007a38.693 38.693 0 0 0 19.206-5.24c.045-.021.093-.032.137-.058.029-.018.045-.045.072-.064a39.703 39.703 0 0 0 14.2-14.317c.027-.04.062-.07.086-.114.018-.03.016-.063.03-.094a39.605 39.605 0 0 0 5.227-19.706 39.62 39.62 0 0 0-5.225-19.706z"/><path id="bqlnd" d="M1014.111 1866h-7.222c-1.595 0-2.889 1.344-2.889 3s1.294 3 2.889 3h7.222c1.595 0 2.889-1.344 2.889-3s-1.294-3-2.889-3z"/><path id="bqlne" d="M1015 1876h-15a3.001 3.001 0 0 0 0 6h15a3.001 3.001 0 0 0 0-6z"/><path id="bqlnf" d="M1014.053 1887h-22.106c-1.627 0-2.947 1.344-2.947 3s1.32 3 2.947 3h22.106c1.627 0 2.947-1.344 2.947-3s-1.32-3-2.947-3z"/><path id="bqlng" d="M1014.043 1897h-28.086c-1.632 0-2.957 1.344-2.957 3s1.325 3 2.957 3h28.086c1.632 0 2.957-1.344 2.957-3s-1.325-3-2.957-3z"/><path id="bqlnh" d="M1014.059 1907H994.94c-1.623 0-2.941 1.344-2.941 3s1.318 3 2.941 3h19.118c1.623 0 2.941-1.344 2.941-3s-1.318-3-2.941-3z"/><path id="bqlni" d="M1014.09 1917h-10.18c-1.607 0-2.91 1.344-2.91 3s1.303 3 2.91 3h10.18c1.607 0 2.91-1.344 2.91-3s-1.303-3-2.91-3z"/></defs><g><g transform="translate(-983 -1847)"><g><use fill="#fdb913" xlink:href="#bqlna"/></g><g><use fill="#3a5b85" xlink:href="#bqlnb"/></g><g><use fill="#3a5b85" xlink:href="#bqlnc"/></g><g><use fill="#3a5b85" xlink:href="#bqlnd"/></g><g><use fill="#3a5b85" xlink:href="#bqlne"/></g><g><use fill="#3a5b85" xlink:href="#bqlnf"/></g><g><use fill="#3a5b85" xlink:href="#bqlng"/></g><g><use fill="#3a5b85" xlink:href="#bqlnh"/></g><g><use fill="#3a5b85" xlink:href="#bqlni"/></g></g></g></svg>