<?xml version="1.0" encoding="UTF-8"?>
<svg width="100px" height="100px" viewBox="0 0 100 100" version="1.1" xmlns="http://www.w3.org/2000/svg" xmlns:xlink="http://www.w3.org/1999/xlink">
    <!-- Generator: Sketch 53.1 (72631) - https://sketchapp.com -->
    <title>Artboard</title>
    <desc>Created with Sketch.</desc>
    <g id="Artboard" stroke="none" stroke-width="1" fill="none" fill-rule="evenodd">
        <g id="stethoscope" transform="translate(0.000000, 2.000000)">
            <circle id="Oval" fill="#FDB913" cx="20" cy="7" r="6"></circle>
            <circle id="Oval" fill="#FDB913" cx="40" cy="7" r="6"></circle>
            <path d="M84.3744141,24.609375 C83.2962891,24.609375 82.4212891,25.484375 82.4212891,26.5625 C82.4212891,27.640625 83.2962891,28.515625 84.3744141,28.515625 C85.4525391,28.515625 86.3275391,27.640625 86.3275391,26.5625 C86.3275391,25.484375 85.4525391,24.609375 84.3744141,24.609375 Z" id="Path" fill="#3A5B85" fill-rule="nonzero"></path>
            <path d="M90.2337891,30.46875 C89.1550781,30.46875 88.2806641,31.3431641 88.2806641,32.421875 C88.2806641,34.5757812 86.5283203,36.328125 84.3744141,36.328125 C82.2205078,36.328125 80.4681641,34.5757812 80.4681641,32.421875 C80.4681641,32.2712891 80.4761719,32.1275391 80.4917969,31.9945312 C80.6181641,30.9232422 79.8523438,29.9523438 78.7810547,29.8257813 C77.7091797,29.6992188 76.7388672,30.4650391 76.6123047,31.5365234 C76.5787109,31.8207031 76.5617187,32.1185547 76.5617187,32.4216797 C76.5617187,36.7294922 80.0664062,40.2341797 84.3742187,40.2341797 C88.6820312,40.2341797 92.1869141,36.7296875 92.1869141,32.421875 C92.1869141,31.3431641 91.3125,30.46875 90.2337891,30.46875 Z" id="Path" fill="#3A5B85" fill-rule="nonzero"></path>
            <path d="M25.5014947,64.6826965 L30.5013644,64.7188021 C30.3722492,82.5985502 39.2700373,91.1431615 58.1401263,91.1431615 C76.5824587,91.1431615 84.5140191,77.0412711 81.8840793,47.21962 L86.8647488,46.78038 C89.7193569,79.149611 80.1613922,96.1431615 58.1401263,96.1431615 C36.5466169,96.1431615 25.3519405,85.3928314 25.5014947,64.6826965 Z" id="Path-2" fill="#3A5B85" fill-rule="nonzero"></path>
            <path d="M34.1191406,64.8910156 C43.3464844,62.5859375 50.4550781,55.0123047 51.9554688,45.2966797 L56.1505859,19.8675781 C57.36875,12.8164063 52.9472656,6.01152344 45.9933594,4.27285156 L44.7375,3.95976563 C43.3648438,1.52480469 40.7982422,0 37.9408203,0 C33.6330078,0 30.1283203,3.5046875 30.1283203,7.8125 C30.1283203,12.1203125 33.6330078,15.625 37.9408203,15.625 C38.9357422,15.625 39.9238281,15.4308594 40.8400391,15.0652344 L43.1511719,15.6431641 C44.1386719,15.8898438 44.7761719,16.8677734 44.6023438,17.8707031 L43.3367188,25.1949219 C43.3355469,25.2017578 43.334375,25.2085937 43.3332031,25.2154297 L40.3853516,43.4300781 C39.4529297,49.5003906 34.3177734,53.90625 28.1751953,53.90625 C22.0330078,53.90625 16.8929687,49.4707031 15.9533203,43.359375 C15.9523437,43.3523437 15.9511719,43.3453125 15.95,43.3382812 L11.7480469,17.8693359 C11.5742188,16.8675781 12.2117187,15.8896484 13.1998047,15.6427734 L15.5105469,15.0650391 C16.4275391,15.4310547 17.4152344,15.625 18.4095703,15.625 C22.7173828,15.625 26.2220703,12.1203125 26.2220703,7.8125 C26.2220703,3.5046875 22.7173828,0 18.4095703,0 C15.5521484,0 12.9853516,1.52480469 11.6128906,3.95996094 L10.3578125,4.27324219 C3.44785156,6.00019531 -1.01328125,12.8505859 0.19921875,19.8533203 L4.38515625,45.2246094 C5.88105469,54.9236328 13.0064453,62.6373047 22.3697266,64.9259766 C22.3697266,64.7928146 25.5230051,65.7286373 28.5624399,65.7285842 C31.3900547,65.7285348 34.1191406,64.7839831 34.1191406,64.8910156 Z M37.9408203,11.71875 C35.7869141,11.71875 34.0345703,9.96640625 34.0345703,7.8125 C34.0345703,5.65859375 35.7869141,3.90625 37.9408203,3.90625 C40.1646484,3.90625 41.8470703,5.71347656 41.8470703,7.8125 C41.8470703,9.9765625 40.0953125,11.71875 37.9408203,11.71875 Z M18.4095703,3.90625 C20.5634766,3.90625 22.3158203,5.65859375 22.3158203,7.8125 C22.3158203,9.96640625 20.5634766,11.71875 18.4095703,11.71875 C16.2533203,11.71875 14.5033203,9.97558594 14.5033203,7.8125 C14.5033203,5.70917969 16.1900391,3.90625 18.4095703,3.90625 Z M8.24453125,44.6191406 C8.24355469,44.6121094 8.24238281,44.6050781 8.24121094,44.5980469 L4.05097656,19.2019531 C3.22441406,14.428125 6.07636719,9.76523437 10.6126953,8.26640625 C10.6900391,9.61054687 11.1087891,10.884375 11.8048828,11.9859375 C9.10039062,12.896875 7.40429687,15.6830078 7.89667969,18.5210937 L12.0941406,43.9634766 C13.3330078,51.9888672 20.0943359,57.8125 28.1751953,57.8125 C36.2601563,57.8125 43.0189453,52.0132812 44.2439453,44.0386719 L47.1876953,25.8492187 L48.4511719,18.5371094 C48.9458984,15.6837891 47.2496094,12.8964844 44.5453125,11.9861328 C45.2416016,10.884375 45.6605469,9.61054688 45.7376953,8.26601563 C50.2736328,9.76464844 53.1261719,14.4287109 52.2990234,19.2171875 L48.0998047,44.6703125 C48.0986328,44.6773437 48.0976563,44.6841797 48.0964844,44.6910156 C46.6173828,54.2972656 38.3617188,61.7445313 28.1246094,61.7173828 C17.8960937,61.6902344 9.72734375,54.2625 8.24453125,44.6191406 Z" id="Shape" fill="#3A5B85" fill-rule="nonzero"></path>
            <path d="M84.3744141,16.796875 C75.7587891,16.796875 68.7494141,23.80625 68.7494141,32.421875 C68.7494141,38.9476562 72.7390625,44.55625 78.5150391,46.9039062 C81.1347982,47.5705729 83.0996175,47.9039062 84.4094971,47.9039062 C85.7037842,47.9039062 87.6452148,47.5705729 90.2337891,46.9039062 C95.9957031,44.5621094 99.9994141,38.9630859 99.9994141,32.421875 C99.9994141,23.80625 92.9900391,16.796875 84.3744141,16.796875 Z M84.1791016,44.1367187 C77.6896484,44.0308594 72.6556641,38.6740234 72.6556641,32.421875 C72.6556641,25.9601562 77.9126953,20.703125 84.3744141,20.703125 C90.8361328,20.703125 96.0931641,25.9601562 96.0931641,32.421875 C96.0931641,38.8089844 90.8474609,44.2457031 84.1791016,44.1367187 Z" id="Shape" fill="#3A5B85" fill-rule="nonzero"></path>
        </g>
    </g>
</svg>