<svg xmlns="http://www.w3.org/2000/svg" xmlns:xlink="http://www.w3.org/1999/xlink" width="100" height="100" viewBox="0 0 100 100"><defs><path id="yofaa" d="M416.005 1562.677c-25.776 0-46.672-20.896-46.672-46.672 0-25.776 20.896-46.672 46.672-46.672 25.776 0 46.672 20.896 46.672 46.672-.03 25.764-20.908 46.642-46.672 46.672zM416 1466c-27.614 0-50 22.386-50 50s22.386 50 50 50 50-22.386 50-50c-.031-27.601-22.399-49.969-50-50z"/><path id="yofab" d="M416.003 1556.004c-22.091 0-40-17.909-40-40 0-22.092 17.909-40.001 40-40.001 22.092 0 40 17.909 40 40-.025 22.081-17.919 39.975-40 40zm0-83.334c-23.932 0-43.333 19.401-43.333 43.333 0 23.933 19.401 43.334 43.333 43.334 23.933 0 43.334-19.401 43.334-43.334-.027-23.92-19.412-43.306-43.334-43.333z"/><path id="yofac" d="M377.67 1517.67v-3.34h6.66v3.34z"/><path id="yofad" d="M447.67 1517.67v-3.34h6.66v3.34z"/><path id="yofae" d="M383.629 1536.614l-1.665-2.884 5.777-3.334 1.665 2.884z"/><path id="yofaf" d="M444.261 1501.614l-1.67-2.893 5.778-3.335 1.67 2.893z"/><path id="yofag" d="M387.74 1501.611l-5.769-3.33 1.67-2.892 5.768 3.33z"/><path id="yofah" d="M448.371 1536.604l-5.777-3.334 1.665-2.884 5.777 3.334z"/><path id="yofai" d="M398.718 1489.406l-3.33-5.768 2.884-1.664 3.33 5.768z"/><path id="yofaj" d="M414.33 1484.33v-6.66h3.34v6.66z"/><path id="yofak" d="M433.277 1489.401l-2.884-1.664 3.33-5.768 2.884 1.664z"/><path id="yofal" d="M383.369 1508.975l-4.83-1.294.862-3.216 4.83 1.294z"/><path id="yofam" d="M452.583 1527.53l-4.83-1.294.864-3.226 4.83 1.294z"/><path id="yofan" d="M391.255 1493.605l-3.535-3.535 2.355-2.355 3.535 3.535z"/><path id="yofao" d="M405.754 1484.236l-1.294-4.83 3.216-.862 1.294 4.83z"/><path id="yofap" d="M426.231 1484.24l-3.216-.861 1.294-4.83 3.216.862z"/><path id="yofaq" d="M440.75 1493.61l-2.355-2.355 3.535-3.535 2.355 2.355z"/><path id="yofar" d="M448.636 1508.98l-.862-3.216 4.83-1.294.862 3.216z"/><path id="yofas" d="M379.406 1527.53l-.862-3.216 4.83-1.294.862 3.216z"/><path id="yofat" d="M423.071 1488.577c-15.153-3.904-30.601 5.218-34.505 20.375a28.346 28.346 0 0 0 2.892 21.224 1.666 1.666 0 0 0 2.885-1.667c-6.895-11.965-2.788-27.255 9.175-34.152 11.962-6.897 27.248-2.789 34.144 9.176a25.01 25.01 0 0 1 2.55 18.728 1.668 1.668 0 0 0 3.23.834v-.005c3.903-15.157-5.217-30.61-20.37-34.513z"/><path id="yofau" d="M416.527 1511.594l20.213 15.162h-4.547l-19.949-7.581v-7.581z"/><path id="yofav" d="M420.54 1520.85a6.615 6.615 0 0 0 1.89-3.191l8.401 6.855zm-4.542-1.526a3.33 3.33 0 0 1-3.334-3.329 3.33 3.33 0 0 1 3.334-3.328 3.33 3.33 0 0 1 3.333 3.328 3.33 3.33 0 0 1-3.333 3.329zm24.388 8.72l-18.333-15a1.561 1.561 0 0 0-.155-.084 6.648 6.648 0 1 0-6.3 9.667l23.166 8.275a1.667 1.667 0 0 0 1.622-2.858z"/><path id="yofaw" d="M422.675 1546.005h-13.34a5.002 5.002 0 1 1 0-10.004h13.34a5.002 5.002 0 1 1 0 10.004zm-.008-13.335h-13.334a8.333 8.333 0 0 0 0 16.667h13.334a8.333 8.333 0 0 0 0-16.667z"/><path id="yofax" d="M412.66 1539.333h-3.33c-.918 0-1.663.749-1.663 1.672 0 .923.745 1.672 1.664 1.672h3.328c.92 0 1.664-.749 1.664-1.672 0-.923-.745-1.672-1.664-1.672z"/><path id="yofay" d="M422.66 1539.333h-3.33c-.918 0-1.663.749-1.663 1.672 0 .923.745 1.672 1.664 1.672h3.328c.92 0 1.664-.749 1.664-1.672 0-.923-.745-1.672-1.664-1.672z"/></defs><g><g transform="translate(-366 -1466)"><g><use fill="#3a5b85" xlink:href="#yofaa"/></g><g><use fill="#3a5b85" xlink:href="#yofab"/></g><g><use fill="#3a5b85" xlink:href="#yofac"/></g><g><use fill="#3a5b85" xlink:href="#yofad"/></g><g><use fill="#3a5b85" xlink:href="#yofae"/></g><g><use fill="#3a5b85" xlink:href="#yofaf"/></g><g><use fill="#3a5b85" xlink:href="#yofag"/></g><g><use fill="#3a5b85" xlink:href="#yofah"/></g><g><use fill="#3a5b85" xlink:href="#yofai"/></g><g><use fill="#3a5b85" xlink:href="#yofaj"/></g><g><use fill="#3a5b85" xlink:href="#yofak"/></g><g><use fill="#3a5b85" xlink:href="#yofal"/></g><g><use fill="#3a5b85" xlink:href="#yofam"/></g><g><use fill="#3a5b85" xlink:href="#yofan"/></g><g><use fill="#3a5b85" xlink:href="#yofao"/></g><g><use fill="#3a5b85" xlink:href="#yofap"/></g><g><use fill="#3a5b85" xlink:href="#yofaq"/></g><g><use fill="#3a5b85" xlink:href="#yofar"/></g><g><use fill="#3a5b85" xlink:href="#yofas"/></g><g><use fill="#3a5b85" xlink:href="#yofat"/></g><g><use fill="#fdb913" xlink:href="#yofau"/></g><g><use fill="#3a5b85" xlink:href="#yofav"/></g><g><use fill="#3a5b85" xlink:href="#yofaw"/></g><g><use fill="#3a5b85" xlink:href="#yofax"/></g><g><use fill="#3a5b85" xlink:href="#yofay"/></g></g></g></svg>