<svg xmlns="http://www.w3.org/2000/svg" xmlns:xlink="http://www.w3.org/1999/xlink" width="104" height="98" viewBox="0 0 104 98"><defs><path id="rnwga" d="M676 3861a8 8 0 0 1 8-8h20a8 8 0 0 1 8 8v23a8 8 0 0 1-8 8h-20a8 8 0 0 1-8-8z"/><path id="rnwgb" d="M770.936 3883.436c-2.156 9.138-7.136 17.446-14.398 24.028l-36.852 32.876-36.23-32.878c-7.262-6.58-12.242-14.89-14.398-24.026-1.496-6.334-1.004-10.218-.884-10.956 1.516-16.708 13.344-28.83 28.142-28.83 9.702 0 18.36 5.198 23.394 13.812 5.08-8.504 14.108-13.81 23.968-13.81 14.8 0 26.626 12.122 28.144 28.83.118.738.61 4.622-.886 10.954zm-68.938-25.63c0-1.106-.894-2-2-2-11.028 0-20 8.972-20 20 0 1.106.894 2 2 2 1.106 0 2-.894 2-2 0-8.822 7.178-16 16-16a2 2 0 0 0 2-2z"/></defs><g><g transform="translate(-668 -3843)"><g><use fill="#fdb913" xlink:href="#rnwga"/></g><g><use fill="#3a5b85" xlink:href="#rnwgb"/></g></g></g></svg>