<svg xmlns="http://www.w3.org/2000/svg" xmlns:xlink="http://www.w3.org/1999/xlink" width="71" height="79" viewBox="0 0 71 79"><defs><path id="yj6ga" d="M745.5 7504a5.5 5.5 0 1 1 5.5-5.5 5.506 5.506 0 0 1-5.502 5.497zm-25.5-16a6 6 0 1 1 6-6 6.008 6.008 0 0 1-6 6zm2.605 28.581A5.5 5.5 0 1 1 720.5 7506a5.506 5.506 0 0 1 5.5 5.5 5.5 5.5 0 0 1-3.395 5.081zM695.5 7504a5.5 5.5 0 1 1 5.5-5.5 5.506 5.506 0 0 1-5.5 5.5zm19.5-50.5a5.5 5.5 0 1 1 5.5 5.5 5.506 5.506 0 0 1-5.5-5.5zm-19.503 18.5a5.5 5.5 0 1 1 5.503-5.502 5.506 5.506 0 0 1-5.5 5.502zm50.003-11a5.5 5.5 0 1 1-5.5 5.498 5.506 5.506 0 0 1 5.5-5.498zm.486 27.887a9.934 9.934 0 0 0-6.732 2.62l-8.103-5.155a11.721 11.721 0 0 0 .26-7.92l7.796-4.963a9.963 9.963 0 0 0 13.238.315c3.859-3.266 4.689-8.91 1.935-13.157-2.753-4.248-8.227-5.768-12.762-3.545-4.535 2.224-6.709 7.493-5.069 12.287l-7.587 4.82a11.6 11.6 0 0 0-6.02-3.54v-7.91c4.873-1.313 8.008-6.069 7.31-11.088-.699-5.02-5.012-8.73-10.057-8.65-5.046.08-9.24 3.924-9.782 8.963-.541 5.04 2.741 9.693 7.654 10.852v7.764a11.59 11.59 0 0 0-6.215 3.483l-7.384-4.699c1.643-4.798-.532-10.074-5.072-12.3-4.54-2.226-10.019-.704-12.775 3.548-2.756 4.252-1.925 9.9 1.939 13.17a9.973 9.973 0 0 0 13.25-.318l7.542 4.8a11.725 11.725 0 0 0 .257 8.245l-7.85 4.999a9.957 9.957 0 0 0-13.23-.203c-3.829 3.296-4.612 8.94-1.827 13.163 2.786 4.222 8.267 5.697 12.78 3.44 4.514-2.258 6.646-7.54 4.97-12.317l7.938-5.055a11.586 11.586 0 0 0 5.68 2.944v8.723c-4.907 1.159-8.186 5.809-7.644 10.843.54 5.033 4.732 8.873 9.772 8.953 5.04.08 9.35-3.626 10.048-8.64.698-5.015-2.433-9.766-7.301-11.079v-8.861a11.58 11.58 0 0 0 5.49-2.995l8.13 5.174a10.062 10.062 0 0 0 3.406 11.343 9.956 9.956 0 0 0 11.794.18 10.06 10.06 0 0 0 3.746-11.234 9.996 9.996 0 0 0-9.522-6.992z"/></defs><g><g transform="translate(-685 -7443)"><use fill="#fff" xlink:href="#yj6ga"/></g></g></svg>